<svg id="Layer_1" data-name="Layer 1" xmlns="http://www.w3.org/2000/svg" xmlns:xlink="http://www.w3.org/1999/xlink" viewBox="0 0 578.19 671.66"><defs><style>.cls-1{fill:none;}.cls-2{clip-path:url(#clip-path);}.cls-3{fill:#efefef;}.cls-4{fill:#8c8b8b;}</style><clipPath id="clip-path" transform="translate(-9.01 -78.63)"><rect id="Rectangle_22" data-name="Rectangle 22" class="cls-1" x="9.25" y="142.47" width="578.64" height="525.35"/></clipPath></defs><title>flow</title><g class="cls-2"><image width="375" height="812" transform="translate(300.44 91) rotate(-45) scale(0.33)" xlink:href="../../../HVA/jaar%202/blok%201/project%20Web/Reseek%203.1/launch%20%E2%80%93%203.png"/><image width="375" height="812" transform="translate(2.04 481.13) rotate(-45) scale(0.33)" xlink:href="../../../HVA/jaar%202/blok%201/project%20Web/Reseek%203.1/transport%20%E2%80%93%201.png"/><image width="375" height="801" transform="translate(216.66 458.27) rotate(-45) scale(0.33)" xlink:href="../../../HVA/jaar%202/blok%201/project%20Web/Reseek%203.1/placestogo%20%E2%80%93%201.png"/><image width="375" height="812" transform="translate(69.66 88.92) rotate(-45) scale(0.33)" xlink:href="../../../HVA/jaar%202/blok%201/project%20Web/Reseek%203.1/Map-1%20%E2%80%93%207.png"/><path class="cls-3" d="M153.16,84.41,83.37,154.19a19.74,19.74,0,0,0,0,27.9l170,170a19.72,19.72,0,0,0,27.89,0l69.78-69.79a19.72,19.72,0,0,0,0-27.89l-170-170A19.72,19.72,0,0,0,153.16,84.41ZM344,258.7a13.54,13.54,0,0,1,0,19.15l-67.22,67.22a13.56,13.56,0,0,1-19.15,0l-168-168a13.54,13.54,0,0,1,0-19.15l67.22-67.21a13.54,13.54,0,0,1,19.15,0Z" transform="translate(-9.01 -78.63)"/><rect class="cls-3" x="99.29" y="117.95" width="53.55" height="18.3" rx="8.77" transform="translate(-61.96 47.74) rotate(-45)"/><circle class="cls-4" cx="131.68" cy="36.22" r="1.75"/><rect class="cls-4" x="113.15" y="127.35" width="28.22" height="1.87" rx="0.9" transform="translate(-62.46 48.93) rotate(-45)"/><image width="375" height="812" transform="translate(1.91 248.47) rotate(-45) scale(0.33)" xlink:href="../../../HVA/jaar%202/blok%201/project%20Web/Reseek%203.1/To%20go%20%E2%80%93%2012.png"/><path class="cls-3" d="M86.12,243.61,16.33,313.39a19.74,19.74,0,0,0,0,27.9l170.05,170a19.72,19.72,0,0,0,27.89,0l69.78-69.79a19.71,19.71,0,0,0,0-27.89l-170-170A19.72,19.72,0,0,0,86.12,243.61ZM277,417.9a13.54,13.54,0,0,1,0,19.15l-67.22,67.22a13.54,13.54,0,0,1-19.15,0l-168-168a13.55,13.55,0,0,1,0-19.16l67.22-67.21a13.54,13.54,0,0,1,19.15,0Z" transform="translate(-9.01 -78.63)"/><rect class="cls-3" x="32.25" y="277.15" width="53.55" height="18.3" rx="8.77" transform="translate(-194.17 46.96) rotate(-45)"/><circle class="cls-4" cx="64.64" cy="195.42" r="1.75"/><rect class="cls-4" x="46.11" y="286.56" width="28.22" height="1.87" rx="0.9" transform="translate(-194.66 48.15) rotate(-45)"/><image width="375" height="812" transform="translate(281.83 302.14) rotate(-45) scale(0.33)" xlink:href="../../../HVA/jaar%202/blok%201/project%20Web/Reseek%203.1/filters-merged%20default.png"/><path class="cls-3" d="M364.88,296.82l-69.79,69.79a19.72,19.72,0,0,0,0,27.89l170,170a19.74,19.74,0,0,0,27.9,0l69.78-69.78a19.74,19.74,0,0,0,0-27.9l-170-170A19.72,19.72,0,0,0,364.88,296.82ZM555.75,471.11a13.54,13.54,0,0,1,0,19.15l-67.22,67.22a13.54,13.54,0,0,1-19.15,0l-168-168a13.54,13.54,0,0,1,0-19.15l67.22-67.22a13.54,13.54,0,0,1,19.15,0Z" transform="translate(-9.01 -78.63)"/><rect class="cls-3" x="311.01" y="330.36" width="53.55" height="18.3" rx="8.77" transform="translate(-150.15 259.66) rotate(-45)"/><circle class="cls-4" cx="343.4" cy="248.63" r="1.75"/><rect class="cls-4" x="324.87" y="339.77" width="28.22" height="1.87" rx="0.9" transform="translate(-150.65 260.85) rotate(-45)"/><path class="cls-3" d="M383.49,85.82l-69.78,69.79a19.72,19.72,0,0,0,0,27.89l170,170a19.72,19.72,0,0,0,27.89,0l69.79-69.78a19.74,19.74,0,0,0,0-27.9l-170-170A19.74,19.74,0,0,0,383.49,85.82ZM574.37,260.11a13.54,13.54,0,0,1,0,19.15l-67.22,67.22a13.54,13.54,0,0,1-19.15,0l-168-168a13.54,13.54,0,0,1,0-19.15L387.2,92.1a13.55,13.55,0,0,1,19.16,0Z" transform="translate(-9.01 -78.63)"/><rect class="cls-3" x="329.63" y="119.36" width="53.55" height="18.3" rx="8.77" transform="translate(4.5 211.02) rotate(-45)"/><circle class="cls-4" cx="362.02" cy="37.63" r="1.75"/><rect class="cls-4" x="343.48" y="128.77" width="28.22" height="1.87" rx="0.9" transform="translate(4.01 212.21) rotate(-45)"/><path class="cls-3" d="M298.68,454,228.9,523.82a19.72,19.72,0,0,0,0,27.9l170,170a19.72,19.72,0,0,0,27.89,0L496.61,652a19.71,19.71,0,0,0,0-27.89l-170-170A19.72,19.72,0,0,0,298.68,454ZM489.55,628.33a13.54,13.54,0,0,1,0,19.15L422.34,714.7a13.54,13.54,0,0,1-19.15,0l-168-168a13.56,13.56,0,0,1,0-19.15l67.22-67.22a13.54,13.54,0,0,1,19.15,0Z" transform="translate(-9.01 -78.63)"/><rect class="cls-3" x="244.81" y="487.58" width="53.55" height="18.3" rx="8.77" transform="translate(-280.71 258.9) rotate(-45)"/><circle class="cls-4" cx="277.2" cy="405.85" r="1.75"/><rect class="cls-4" x="258.67" y="496.99" width="28.22" height="1.87" rx="0.9" transform="translate(-281.2 260.09) rotate(-45)"/><path class="cls-3" d="M84.58,476.8,14.79,546.58a19.72,19.72,0,0,0,0,27.89l170,170a19.72,19.72,0,0,0,27.9,0l69.78-69.78a19.72,19.72,0,0,0,0-27.89l-170-170A19.71,19.71,0,0,0,84.58,476.8ZM275.45,651.08a13.55,13.55,0,0,1,0,19.16l-67.22,67.21a13.54,13.54,0,0,1-19.15,0l-168-168a13.54,13.54,0,0,1,0-19.15l67.22-67.22a13.54,13.54,0,0,1,19.15,0Z" transform="translate(-9.01 -78.63)"/><rect class="cls-3" x="30.71" y="510.34" width="53.55" height="18.3" rx="8.77" transform="translate(-359.51 114.17) rotate(-45)"/><circle class="cls-4" cx="63.1" cy="428.6" r="1.75"/><rect class="cls-4" x="44.57" y="519.74" width="28.22" height="1.87" rx="0.9" transform="translate(-360 115.36) rotate(-45)"/></g></svg>