<svg id="Layer_1" data-name="Layer 1" xmlns="http://www.w3.org/2000/svg" viewBox="0 0 180 180"><defs><style>.cls-1{fill:#c9ffe3;}</style></defs><title>dribbble</title><path id="Icon_awesome-dribbble" data-name="Icon awesome-dribbble" class="cls-1" d="M430.84,187.45a90,90,0,1,0,90,90h0A90.11,90.11,0,0,0,430.84,187.45ZM490.35,229a76.56,76.56,0,0,1,17.36,47.89c-2.54-.54-27.95-5.69-53.54-2.48-2.09-5.09-4.06-9.58-6.76-15.1C475.84,247.66,488.73,231.15,490.35,229Zm-8.54-8.89c-1.38,2-13,17.52-40.29,27.77a410.44,410.44,0,0,0-28.69-45,76.64,76.64,0,0,1,69,17.24ZM398.16,208a492.48,492.48,0,0,1,28.5,44.46,286.56,286.56,0,0,1-71.07,9.36A77.13,77.13,0,0,1,398.16,208ZM354,277.57c0-.79,0-1.57,0-2.35a283.76,283.76,0,0,0,79-10.94c2.2,4.31,4.31,8.68,6.23,13.05-27.79,7.83-53.05,30.31-65.51,51.64A76.57,76.57,0,0,1,354,277.57Zm29.69,60.65c8-16.42,29.82-37.61,60.82-48.18a319.63,319.63,0,0,1,16.4,58.3,76.75,76.75,0,0,1-77.22-10.12Zm90.14,3.08a331,331,0,0,0-14.94-54.81,112.72,112.72,0,0,1,47.9,3.28A77,77,0,0,1,473.79,341.3Z" transform="translate(-340.84 -187.45)"/></svg>