<svg id="Layer_1" data-name="Layer 1" xmlns="http://www.w3.org/2000/svg" viewBox="0 0 180 180"><defs><style>.cls-1{fill:#ffbfd6;}</style></defs><title>linkedin</title><path id="Icon_awesome-linkedin" data-name="Icon awesome-linkedin" class="cls-1" d="M484.78,185.46H330.45a12.91,12.91,0,0,0-12.81,13v154a12.9,12.9,0,0,0,12.81,13H484.78a13,13,0,0,0,12.86-13v-154A13,13,0,0,0,484.78,185.46ZM372,339.75H345.36v-85.9h26.72v85.9ZM358.7,242.11a15.48,15.48,0,1,1,15.47-15.47,15.47,15.47,0,0,1-15.47,15.47ZM472,339.75H445.36V298c0-10-.2-22.79-13.86-22.79-13.9,0-16,10.85-16,22.06v42.52H388.79v-85.9h25.6v11.74h.36c3.57-6.76,12.29-13.87,25.27-13.87,27,0,32,17.8,32,40.94Z" transform="translate(-317.64 -185.46)"/></svg>