<svg xmlns="http://www.w3.org/2000/svg" viewBox="0 0 475.31 323.8"><defs><style>.cls-1{isolation:isolate;}.cls-2{fill:#c3c1e8;}.cls-3,.cls-4{font-size:305.12px;font-family:ZCOOLQingKeHuangYou-Regular, ZCOOL QingKe HuangYou;}.cls-3{fill:#00497b;}.cls-4{fill:none;stroke:#222b20;stroke-miterlimit:10;stroke-width:3px;}</style></defs><g id="Layer_2" data-name="Layer 2"><g id="Layer_1-2" data-name="Layer 1"><g class="cls-1"><path class="cls-2" d="M52.84,55.1l-13-2.34a10.63,10.63,0,0,0,1.89.16l13,2.34A10.52,10.52,0,0,1,52.84,55.1Z"/><path class="cls-2" d="M47.92,73.51l13,2.34a10.11,10.11,0,0,1,5.52,3,10.27,10.27,0,0,1,3.12,7.48L56.56,84a10.9,10.9,0,0,0-8.64-10.52Z"/><polygon class="cls-2" points="56.56 84.03 69.58 86.37 69.38 123.57 56.36 121.24 56.56 84.03"/><polygon class="cls-2" points="71.75 52.92 84.77 55.26 54.72 55.26 41.71 52.92 71.75 52.92"/><path class="cls-2" d="M73.57,53.08l13,2.34a9.86,9.86,0,0,0-1.82-.16l-13-2.34A10.72,10.72,0,0,1,73.57,53.08Z"/><path class="cls-2" d="M77.74,134.09l-13-2.33a9.65,9.65,0,0,1-5.4-3,10.5,10.5,0,0,1-3-7.47l13,2.33a10.52,10.52,0,0,0,3,7.48A9.54,9.54,0,0,0,77.74,134.09Z"/><path class="cls-2" d="M70.63,162l-13-2.33A19.4,19.4,0,0,0,61,160l13,2.34A18.4,18.4,0,0,1,70.63,162Z"/><path class="cls-2" d="M51.55,307l-13-2.34a9.64,9.64,0,0,0,1.8.16l13,2.33A10.78,10.78,0,0,1,51.55,307Z"/><polygon class="cls-2" points="71.17 159.97 84.19 162.31 73.98 162.31 60.96 159.97 71.17 159.97"/><path class="cls-2" d="M73,160.13l13,2.34a10,10,0,0,0-1.83-.16l-13-2.34A10,10,0,0,1,73,160.13Z"/><polygon class="cls-2" points="48.75 304.83 61.77 307.17 53.36 307.17 40.34 304.83 48.75 304.83"/><path class="cls-2" d="M67.36,173.86l13,2.34a8.62,8.62,0,0,1,5.23,3l-13-2.34A8.64,8.64,0,0,0,67.36,173.86Z"/><path class="cls-2" d="M72.59,176.89l13,2.34a9.14,9.14,0,0,1,2.06,7.47l-13-2.33A9.12,9.12,0,0,0,72.59,176.89Z"/><polygon class="cls-2" points="74.65 184.37 87.67 186.7 73.86 296.5 60.84 294.16 74.65 184.37"/><path class="cls-2" d="M60.84,294.16l13,2.34a12.56,12.56,0,0,1-4.1,7.46,11.41,11.41,0,0,1-8,3.2l-13-2.33a11.41,11.41,0,0,0,8-3.2A12.51,12.51,0,0,0,60.84,294.16Z"/><path class="cls-2" d="M72.59,176.89a9.12,9.12,0,0,1,2.06,7.48L60.84,294.16a12.51,12.51,0,0,1-4.1,7.47,11.41,11.41,0,0,1-8,3.2H40.34a9.45,9.45,0,0,1-7.19-3.2,10.48,10.48,0,0,1-3-7.47l0-7a33,33,0,0,1,.78-7.63c.51-2,1.17-3.05,2-3.05.6,0,1.35-1.06,2.27-3.2A23.26,23.26,0,0,0,37,265.8l11-81.43a12.4,12.4,0,0,1,4.1-7.48,10.76,10.76,0,0,1,7.37-3.2h6A8.93,8.93,0,0,1,72.59,176.89Z"/><path class="cls-2" d="M109.57,25l13,2.34A10.31,10.31,0,0,1,128,30.25a9.76,9.76,0,0,1,3.11,7.33l-13-2.34A9.71,9.71,0,0,0,115,27.92,10.29,10.29,0,0,0,109.57,25Z"/><polygon class="cls-2" points="118.12 35.24 131.14 37.58 131.1 44.58 118.09 42.24 118.12 35.24"/><path class="cls-2" d="M118.09,42.25l13,2.33a21.15,21.15,0,0,1-1.23,7.63q-1.23,3-3,3c-1,0-1.91,1.07-2.72,3.2a21.23,21.23,0,0,0-1.24,7.48l-13-2.34a21.16,21.16,0,0,1,1.25-7.47c.81-2.14,1.71-3.21,2.72-3.21,1.19,0,2.2-1,3-3.05A21.12,21.12,0,0,0,118.09,42.25Z"/><polygon class="cls-2" points="109.86 63.6 122.88 65.94 122.57 123.57 109.55 121.24 109.86 63.6"/><path class="cls-2" d="M88.51,307l-13-2.34a9.64,9.64,0,0,0,1.8.16l13,2.33A10.7,10.7,0,0,1,88.51,307Z"/><polygon class="cls-2" points="78.51 304.83 91.53 307.17 90.32 307.17 77.3 304.83 78.51 304.83"/><path class="cls-2" d="M126.17,134.23l-13-2.34c-.91-.16-1.72-1.22-2.44-3.18a21.05,21.05,0,0,1-1.16-7.47l13,2.33a21.11,21.11,0,0,0,1.16,7.48C124.45,133,125.26,134.07,126.17,134.23Z"/><path class="cls-2" d="M113.76,132l13,2.33c1,.19,1.91,1.19,2.63,3a21,21,0,0,1,1.15,7.62l-13-2.34a21,21,0,0,0-1.15-7.62C115.67,133.14,114.8,132.13,113.76,132Z"/><polygon class="cls-2" points="117.54 142.58 130.56 144.92 130.52 151.63 117.51 149.29 117.54 142.58"/><path class="cls-2" d="M117.51,149.29l13,2.34a21.32,21.32,0,0,1-1.23,7.48q-1.23,3.19-3,3.2c-1,0-1.91,1.06-2.72,3.2A21.17,21.17,0,0,0,122.3,173l-13-2.34a21.24,21.24,0,0,1,1.25-7.47c.81-2.14,1.71-3.2,2.72-3.2q1.78,0,3-3.2A21.46,21.46,0,0,0,117.51,149.29Z"/><path class="cls-2" d="M96.28,296.6l13,2.33a30,30,0,0,1-8.45,5.8,21.9,21.9,0,0,1-9.32,2.43l-13-2.33a22,22,0,0,0,9.33-2.44A30.05,30.05,0,0,0,96.28,296.6Z"/><polygon class="cls-2" points="101.72 290.19 114.74 292.53 109.3 298.93 96.28 296.6 101.72 290.19"/><polygon class="cls-2" points="109.28 170.64 122.3 172.98 121.75 273.93 108.73 271.59 109.28 170.64"/><path class="cls-2" d="M108.73,271.59l13,2.34a31.31,31.31,0,0,1-1.85,9.91,22.64,22.64,0,0,1-5.16,8.69l-13-2.34a22.44,22.44,0,0,0,5.16-8.69A31,31,0,0,0,108.73,271.59Z"/><path class="cls-2" d="M107.67,24.87A10.17,10.17,0,0,1,115,27.92a9.71,9.71,0,0,1,3.11,7.32l0,7a21.12,21.12,0,0,1-1.24,7.62c-.82,2-1.83,3.05-3,3.05-1,0-1.91,1.07-2.72,3.21a21.16,21.16,0,0,0-1.25,7.47l-.31,57.64a21.05,21.05,0,0,0,1.16,7.47c.79,2.13,1.68,3.2,2.69,3.2,1.2,0,2.19,1,3,3.05a21,21,0,0,1,1.15,7.62l0,6.71a21.46,21.46,0,0,1-1.24,7.48q-1.23,3.19-3,3.2c-1,0-1.91,1.06-2.72,3.2a21.24,21.24,0,0,0-1.25,7.47l-.55,100.95a31,31,0,0,1-1.85,9.91,22.44,22.44,0,0,1-5.16,8.69l-5.44,6.41a30.05,30.05,0,0,1-8.44,5.79,22,22,0,0,1-9.33,2.44H77.3a9.45,9.45,0,0,1-7.19-3.2,10.48,10.48,0,0,1-3-7.47l0-7a13.93,13.93,0,0,1,2-7.63q2-3,4.67-3.05a6.16,6.16,0,0,0,5.13-3,13.13,13.13,0,0,0,2.14-7.62l.52-95.16a10.31,10.31,0,0,0-3.12-7.47,9.94,9.94,0,0,0-7.35-3.2H61a22.46,22.46,0,0,1-9.45-2.29A23.69,23.69,0,0,1,43.57,152l-6-6.1A35.2,35.2,0,0,1,33,136.79,29.38,29.38,0,0,1,31.1,127l.23-43a10.64,10.64,0,0,1,3-7.48,9.6,9.6,0,0,1,7.23-3.2h4.51a10,10,0,0,1,7.34,3.2A10.3,10.3,0,0,1,56.56,84l-.2,37.21a10.5,10.5,0,0,0,3,7.47,9.52,9.52,0,0,0,7.2,3.2h4.81a10.08,10.08,0,0,0,7.38-3.2,10.36,10.36,0,0,0,3.19-7.47l.32-57.64a10.27,10.27,0,0,0-3.12-7.47,10,10,0,0,0-7.35-3.21h-30a9.65,9.65,0,0,1-7.19-3.05,10.37,10.37,0,0,1-3-7.62l0-7a10.06,10.06,0,0,1,3.05-7.32,9.74,9.74,0,0,1,7.22-3.05Z"/></g><g class="cls-1"><path class="cls-2" d="M123,119.13l13,2.33-.25,0-.26,0-13-2.34a1.18,1.18,0,0,0,.26,0A1,1,0,0,1,123,119.13Z"/><path class="cls-2" d="M152.24,25l13,2.34a10.31,10.31,0,0,1,5.45,2.88,9.81,9.81,0,0,1,3.12,7.33l-13-2.34a9.78,9.78,0,0,0-3.11-7.32A10.36,10.36,0,0,0,152.24,25Z"/><polygon class="cls-2" points="160.8 35.24 173.82 37.58 173.66 65.94 160.65 63.6 160.8 35.24"/><polygon class="cls-2" points="154.66 113 167.68 115.34 167.59 131.2 154.58 128.86 154.66 113"/><path class="cls-2" d="M181.63,75.5l-13-2.34a10.11,10.11,0,0,1-5-2.4,8.86,8.86,0,0,1-3-7.16l13,2.34a8.89,8.89,0,0,0,3,7.16A10.2,10.2,0,0,0,181.63,75.5Z"/><path class="cls-2" d="M165.24,102.63l13,2.34a10.42,10.42,0,0,0-10.58,10.37l-13-2.34a10.43,10.43,0,0,1,10.58-10.37Z"/><path class="cls-2" d="M176,141.69l-13-2.34a9.74,9.74,0,0,1-5.38-2.87,10.3,10.3,0,0,1-3-7.62l13,2.34a10.35,10.35,0,0,0,3,7.62A9.77,9.77,0,0,0,176,141.69Z"/><polygon class="cls-2" points="154.31 178.57 167.32 180.91 167.24 196.77 154.22 194.43 154.31 178.57"/><path class="cls-2" d="M147.39,307l-13-2.34a10.93,10.93,0,0,0,1.83.16l13,2.33A10.94,10.94,0,0,1,147.39,307Z"/><polygon class="cls-2" points="173.35 102.63 186.37 104.97 178.26 104.97 165.24 102.63 173.35 102.63"/><path class="cls-2" d="M192.88,64.56l-13-2.34a10.72,10.72,0,0,0,1.82.16l13,2.33A10.9,10.9,0,0,1,192.88,64.56Z"/><path class="cls-2" d="M175.28,102.8l13,2.34a11.17,11.17,0,0,0-1.93-.17l-13-2.34A11.17,11.17,0,0,1,175.28,102.8Z"/><path class="cls-2" d="M164.89,167.9l13,2.33a10.2,10.2,0,0,0-7.52,3.05,10.46,10.46,0,0,0-3,7.63l-13-2.34a10.42,10.42,0,0,1,3.05-7.62A10.17,10.17,0,0,1,164.89,167.9Z"/><polygon class="cls-2" points="143.11 304.83 156.13 307.17 149.22 307.17 136.2 304.83 143.11 304.83"/><path class="cls-2" d="M175.69,207.57l-13-2.34a9.69,9.69,0,0,1-5.48-3,10.91,10.91,0,0,1-3-7.78l13,2.34a10.83,10.83,0,0,0,3,7.77A9.61,9.61,0,0,0,175.69,207.57Z"/><polygon class="cls-2" points="153.95 244.45 166.97 246.79 166.88 262.34 153.87 260 153.95 244.45"/><polygon class="cls-2" points="173 167.9 186.01 170.23 177.9 170.23 164.89 167.9 173 167.9"/><path class="cls-2" d="M175.12,168.08l13,2.34a11.33,11.33,0,0,0-2.13-.19l-13-2.33A12.21,12.21,0,0,1,175.12,168.08Z"/><path class="cls-2" d="M164.53,233.47l13,2.33A9.93,9.93,0,0,0,170,239a11,11,0,0,0-3.05,7.79l-13-2.34a11,11,0,0,1,3.06-7.78A9.91,9.91,0,0,1,164.53,233.47Z"/><polygon class="cls-2" points="199.41 62.38 212.43 64.72 194.7 64.72 181.69 62.38 199.41 62.38"/><path class="cls-2" d="M175.24,272.83l-13-2.34a9.74,9.74,0,0,1-5.38-2.87,10.3,10.3,0,0,1-3-7.62l13,2.34a10.36,10.36,0,0,0,3,7.62A9.77,9.77,0,0,0,175.24,272.83Z"/><polygon class="cls-2" points="172.64 233.47 185.66 235.8 177.55 235.8 164.53 233.47 172.64 233.47"/><path class="cls-2" d="M174.48,233.63l13,2.33a11.14,11.14,0,0,0-1.84-.16l-13-2.33A10.16,10.16,0,0,1,174.48,233.63Z"/><path class="cls-2" d="M164.18,299l13,2.34a26.65,26.65,0,0,0-7.37.92c-2.1.61-3.16,1.21-3.16,1.83,0,.8-1,1.52-3,2.14a26.6,26.6,0,0,1-7.51.9l-13-2.33a26.51,26.51,0,0,0,7.51-.91c2-.61,3-1.33,3-2.14,0-.61,1.06-1.22,3.17-1.83A26.6,26.6,0,0,1,164.18,299Z"/><path class="cls-2" d="M217.48,54.45l13,2.34a27.22,27.22,0,0,1-8.59,5.64,24.29,24.29,0,0,1-9.48,2.28l-13-2.33a24.32,24.32,0,0,0,9.48-2.29A27.22,27.22,0,0,0,217.48,54.45Z"/><polygon class="cls-2" points="224.74 47.44 237.75 49.77 230.5 56.79 217.48 54.45 224.74 47.44"/><polygon class="cls-2" points="211.46 113 224.48 115.34 224.39 131.2 211.37 128.86 211.46 113"/><path class="cls-2" d="M224.43,25.09l13,2.33a11.42,11.42,0,0,1,4.62,1.91,6.24,6.24,0,0,1,3,5.2A16.61,16.61,0,0,1,242.9,42a43,43,0,0,1-5.15,7.78l-13-2.33a43.9,43.9,0,0,0,5.14-7.79A16.76,16.76,0,0,0,232,32.19a6.23,6.23,0,0,0-3-5.19A11.28,11.28,0,0,0,224.43,25.09Z"/><path class="cls-2" d="M181.69,62.38a10,10,0,0,1-7.35-3.21,10.58,10.58,0,0,1-3.11-7.77l0-6.71a10.4,10.4,0,0,1,3.2-7.47A10,10,0,0,1,181.84,34h12.32a17.34,17.34,0,0,0,7.21-1.36q3-1.38,3-3.21,0-2.13,3-3.35a20.23,20.23,0,0,1,7.52-1.22h6.91a12.11,12.11,0,0,1,7.2,2.13,6.23,6.23,0,0,1,3,5.19,16.76,16.76,0,0,1-2.15,7.46,43.9,43.9,0,0,1-5.14,7.79l-7.26,7a27.22,27.22,0,0,1-8.59,5.64,24.32,24.32,0,0,1-9.48,2.29Z"/><path class="cls-2" d="M232.67,141.71l-13-2.34a9.67,9.67,0,0,1-5.31-2.89,10.34,10.34,0,0,1-3-7.62l13,2.34a10.33,10.33,0,0,0,3,7.62A9.79,9.79,0,0,0,232.67,141.71Z"/><polygon class="cls-2" points="211.1 178.57 224.12 180.91 224.03 196.77 211.02 194.43 211.1 178.57"/><path class="cls-2" d="M223.18,73.49l13,2.34a9.29,9.29,0,0,1,5.6,3.52,12.66,12.66,0,0,1,3,8.24l-13-2.34a12.65,12.65,0,0,0-3-8.24A9.32,9.32,0,0,0,223.18,73.49Z"/><polygon class="cls-2" points="231.74 85.25 244.75 87.59 244.72 94.3 231.7 91.96 231.74 85.25"/><path class="cls-2" d="M231.7,92l13,2.34a10.93,10.93,0,0,1-2.9,7.47,9.13,9.13,0,0,1-7.07,3.2,9.82,9.82,0,0,0-7.23,3,10.11,10.11,0,0,0-3,7.32l-13-2.34a10.13,10.13,0,0,1,3-7.32,9.85,9.85,0,0,1,7.23-3.05,9.15,9.15,0,0,0,7.08-3.2A10.91,10.91,0,0,0,231.7,92Z"/><path class="cls-2" d="M232.4,207.59l-13-2.34a9.6,9.6,0,0,1-5.4-3,10.9,10.9,0,0,1-3-7.78l13,2.34a10.86,10.86,0,0,0,3,7.77A9.62,9.62,0,0,0,232.4,207.59Z"/><polygon class="cls-2" points="210.75 244.45 223.76 246.79 223.68 262.34 210.66 260 210.75 244.45"/><path class="cls-2" d="M223.38,139.69l13,2.34a9.21,9.21,0,0,1,5.2,2.89,10.63,10.63,0,0,1,2.81,7.63l-13-2.34a10.69,10.69,0,0,0-2.82-7.63A9.22,9.22,0,0,0,223.38,139.69Z"/><polygon class="cls-2" points="231.39 150.21 244.4 152.55 244.37 159.56 231.35 157.23 231.39 150.21"/><path class="cls-2" d="M231.35,157.23l13,2.33a10.76,10.76,0,0,1-2.9,7.62,9.31,9.31,0,0,1-7.07,3,9.86,9.86,0,0,0-7.23,3.05,10.5,10.5,0,0,0-3,7.63l-13-2.34a10.5,10.5,0,0,1,3.05-7.62,9.82,9.82,0,0,1,7.23-3,9.33,9.33,0,0,0,7.07-3.05A10.77,10.77,0,0,0,231.35,157.23Z"/><path class="cls-2" d="M232,272.85l-13-2.34a9.73,9.73,0,0,1-5.31-2.89,10.34,10.34,0,0,1-3-7.62l13,2.34a10.35,10.35,0,0,0,3,7.62A9.86,9.86,0,0,0,232,272.85Z"/><path class="cls-2" d="M223,205.57l13,2.34a9.12,9.12,0,0,1,5.18,2.88,10.69,10.69,0,0,1,2.82,7.63l-13-2.33a10.67,10.67,0,0,0-2.81-7.63A9.16,9.16,0,0,0,223,205.57Z"/><polygon class="cls-2" points="231.03 216.09 244.05 218.42 244.01 225.13 230.99 222.8 231.03 216.09"/><path class="cls-2" d="M231,222.8l13,2.33a10.79,10.79,0,0,1-2.89,7.62A9.33,9.33,0,0,1,234,235.8a9.61,9.61,0,0,0-7.23,3.2,11.09,11.09,0,0,0-3.05,7.79l-13-2.34a11,11,0,0,1,3-7.78,9.63,9.63,0,0,1,7.24-3.2,9.35,9.35,0,0,0,7.07-3.05A10.77,10.77,0,0,0,231,222.8Z"/><polygon class="cls-2" points="220.37 299.03 233.39 301.37 177.19 301.37 164.18 299.03 220.37 299.03"/><path class="cls-2" d="M222.59,270.82l13,2.34a9.08,9.08,0,0,1,5.27,3,10.79,10.79,0,0,1,2.81,7.48l-13-2.34a10.84,10.84,0,0,0-2.82-7.48A9.11,9.11,0,0,0,222.59,270.82Z"/><polygon class="cls-2" points="230.68 281.35 243.69 283.69 243.65 291.01 230.64 288.67 230.68 281.35"/><path class="cls-2" d="M230.64,288.67l13,2.34a10.09,10.09,0,0,1-3,7.31,9.77,9.77,0,0,1-7.22,3.05l-13-2.34a9.77,9.77,0,0,0,7.22-3A10.1,10.1,0,0,0,230.64,288.67Z"/><path class="cls-2" d="M221.59,73.35A9,9,0,0,1,228.78,77a12.65,12.65,0,0,1,3,8.24l0,6.71a10.91,10.91,0,0,1-2.89,7.47,9.15,9.15,0,0,1-7.08,3.2,9.85,9.85,0,0,0-7.23,3.05,10.13,10.13,0,0,0-3,7.32l-.09,15.86a10.34,10.34,0,0,0,3,7.62,9.68,9.68,0,0,0,7.19,3.05,9.26,9.26,0,0,1,7,3.05,10.69,10.69,0,0,1,2.82,7.63l0,7a10.77,10.77,0,0,1-2.9,7.62,9.33,9.33,0,0,1-7.07,3.05,9.82,9.82,0,0,0-7.23,3,10.5,10.5,0,0,0-3.05,7.62L211,194.43a10.9,10.9,0,0,0,3,7.78,9.5,9.5,0,0,0,7.2,3.2,9.22,9.22,0,0,1,7,3.05,10.67,10.67,0,0,1,2.81,7.63l0,6.71a10.77,10.77,0,0,1-2.89,7.62,9.35,9.35,0,0,1-7.07,3.05,9.63,9.63,0,0,0-7.24,3.2,11,11,0,0,0-3,7.78L210.66,260a10.34,10.34,0,0,0,3,7.62,9.71,9.71,0,0,0,7.19,3.05,9,9,0,0,1,7,3.2,10.84,10.84,0,0,1,2.82,7.48l0,7.32a10.1,10.1,0,0,1-3,7.31,9.77,9.77,0,0,1-7.22,3H164.18a26.6,26.6,0,0,0-7.37.92c-2.11.61-3.17,1.22-3.17,1.83,0,.81-1,1.53-3,2.14a26.51,26.51,0,0,1-7.51.91H136.2a9.92,9.92,0,0,1-7.34-3.2,10.22,10.22,0,0,1-3.11-7.47l.88-164.08a22,22,0,0,0-1.16-7.77c-.79-2.14-1.68-3.21-2.69-3.21s-1.9-1-2.68-3a20.76,20.76,0,0,1-1.17-7.62l0-7a14.19,14.19,0,0,1,2-7.47c1.32-2.13,2.87-3.2,4.68-3.2a5.8,5.8,0,0,0,5-3,13.22,13.22,0,0,0,2-7.32l.24-45.13a10.1,10.1,0,0,1,3.05-7.32,9.76,9.76,0,0,1,7.22-3.05h7.22a10.21,10.21,0,0,1,7.35,3.05,9.78,9.78,0,0,1,3.11,7.32l-.15,28.36a8.86,8.86,0,0,0,3,7.16,10.55,10.55,0,0,0,7.2,2.59ZM183.67,194.43l.09-15.86a10.09,10.09,0,0,0-3.11-7.62,10.59,10.59,0,0,0-7.65-3h-8.11a10.17,10.17,0,0,0-7.53,3,10.42,10.42,0,0,0-3.05,7.62l-.09,15.86a10.91,10.91,0,0,0,3,7.78,9.83,9.83,0,0,0,7.49,3.2h8.11a10.61,10.61,0,0,0,7.54-3.2,10.48,10.48,0,0,0,3.34-7.78M183.32,260l.08-15.55a10.36,10.36,0,0,0-3.26-7.78,10.49,10.49,0,0,0-7.5-3.2h-8.11a9.91,9.91,0,0,0-7.52,3.2,11,11,0,0,0-3.06,7.78L153.87,260a10.3,10.3,0,0,0,3,7.62,10,10,0,0,0,7.49,3.05h8.11a10.69,10.69,0,0,0,7.68-3.05,10.22,10.22,0,0,0,3.2-7.62M184,128.86l.09-15.86a9.61,9.61,0,0,0-3.27-7.32,10.75,10.75,0,0,0-7.5-3.05h-8.11A10.43,10.43,0,0,0,154.66,113l-.08,15.86a10.3,10.3,0,0,0,3,7.62,10,10,0,0,0,7.49,3.05h8.11a10.65,10.65,0,0,0,7.68-3.05,10.22,10.22,0,0,0,3.2-7.62"/></g><g class="cls-1"><path class="cls-2" d="M290.67,192.76l13,2.33a10.16,10.16,0,0,1,5.52,3,10.31,10.31,0,0,1,3.12,7.47l-13-2.33a10.3,10.3,0,0,0-3.11-7.48A10.17,10.17,0,0,0,290.67,192.76Z"/><path class="cls-2" d="M280,306.69l-13-2.34a12.18,12.18,0,0,0,2.06.17q7.8,0,14.46-7.31l13,2.34q-6.64,7.31-14.46,7.31A12.15,12.15,0,0,1,280,306.69Z"/><polygon class="cls-2" points="291.34 289.27 304.36 291.61 296.5 299.55 283.48 297.21 291.34 289.27"/><polygon class="cls-2" points="299.31 203.28 312.33 205.61 311.96 273.93 298.94 271.59 299.31 203.28"/><path class="cls-2" d="M288.86,192.6a10,10,0,0,1,7.34,3.2,10.3,10.3,0,0,1,3.11,7.48l-.37,68.31a26.2,26.2,0,0,1-2.15,9.76,19.87,19.87,0,0,1-5.45,7.92l-7.86,7.94q-6.64,7.31-14.46,7.31a8.51,8.51,0,0,1-6.6-2.59c-1.6-1.73-2.38-4.32-2.36-7.77l0-7a17.1,17.1,0,0,1,1.54-7.63q1.51-3,3.62-3.05c1.6,0,3-1,4.08-3A15.89,15.89,0,0,0,271,265.8l.33-62.52a10.7,10.7,0,0,1,3.05-7.48,9.6,9.6,0,0,1,7.23-3.2Z"/><path class="cls-2" d="M298.94,271.59l13,2.34a26.27,26.27,0,0,1-2.16,9.76,19.77,19.77,0,0,1-5.45,7.92l-13-2.34a19.87,19.87,0,0,0,5.45-7.92A26.2,26.2,0,0,0,298.94,271.59Z"/></g><g class="cls-1"><path class="cls-2" d="M327.93,192.76l13,2.33a10.12,10.12,0,0,1,5.52,3,10.31,10.31,0,0,1,3.12,7.47l-13-2.33a10.9,10.9,0,0,0-8.64-10.52Z"/><polygon class="cls-2" points="336.57 203.28 349.59 205.61 349.25 267.83 336.24 265.49 336.57 203.28"/><path class="cls-2" d="M357.88,278.64l-13-2.33a10.12,10.12,0,0,1-5.52-3.05,10.63,10.63,0,0,1-3.12-7.77l13,2.34a10.63,10.63,0,0,0,3.12,7.77A10.11,10.11,0,0,0,357.88,278.64Z"/><path class="cls-2" d="M350.68,306.51l-13-2.34a20.67,20.67,0,0,0,3.77.35l13,2.34A21.59,21.59,0,0,1,350.68,306.51Z"/><path class="cls-2" d="M370.5,192.77l13,2.34a9.64,9.64,0,0,1,5.48,3,10.57,10.57,0,0,1,3,7.47l-13-2.33a10.53,10.53,0,0,0-3-7.48A9.65,9.65,0,0,0,370.5,192.77Z"/><polygon class="cls-2" points="378.94 203.28 391.95 205.61 391.83 227.88 378.82 225.54 378.94 203.28"/><path class="cls-2" d="M400.27,238.37l-13-2.34a9.63,9.63,0,0,1-5.48-3,10.52,10.52,0,0,1-3-7.47l13,2.34a10.53,10.53,0,0,0,3,7.46A9.62,9.62,0,0,0,400.27,238.37Z"/><path class="cls-2" d="M392.74,266.26l-13-2.33a21.67,21.67,0,0,0,3.7.34l13,2.33A20.62,20.62,0,0,1,392.74,266.26Z"/><polygon class="cls-2" points="402.35 264.27 415.37 266.6 396.44 266.6 383.42 264.27 402.35 264.27"/><polygon class="cls-2" points="402.13 304.52 415.15 306.86 354.45 306.86 341.43 304.52 402.13 304.52"/><path class="cls-2" d="M404.34,236.37l13,2.34a10.73,10.73,0,0,1,5.66,3,10,10,0,0,1,3.27,7.47l-13-2.33a10,10,0,0,0-3.27-7.48A10.77,10.77,0,0,0,404.34,236.37Z"/><polygon class="cls-2" points="413.26 246.89 426.28 249.22 426.24 255.94 413.22 253.6 413.26 246.89"/><path class="cls-2" d="M413.22,253.6l13,2.33a10.19,10.19,0,0,1-3.2,7.62,10.63,10.63,0,0,1-7.67,3.05l-13-2.33a10.67,10.67,0,0,0,7.68-3A10.19,10.19,0,0,0,413.22,253.6Z"/><path class="cls-2" d="M402.5,236.21a10.45,10.45,0,0,1,7.49,3.2,10,10,0,0,1,3.27,7.48l0,6.71a10.19,10.19,0,0,1-3.19,7.62,10.67,10.67,0,0,1-7.68,3H383.42a27.78,27.78,0,0,1-18-7.62L358,249.32a28.17,28.17,0,0,1-5.06-8.69,26.38,26.38,0,0,1-2.06-9.6l.15-27.75A10.66,10.66,0,0,1,354,195.8a9.6,9.6,0,0,1,7.23-3.2h7.21a9.81,9.81,0,0,1,7.49,3.2,10.53,10.53,0,0,1,3,7.48l-.12,22.26a10.52,10.52,0,0,0,3,7.47,9.82,9.82,0,0,0,7.5,3.2Z"/><path class="cls-2" d="M404.3,276.64l13,2.34a11.19,11.19,0,0,1,5.48,2.72l-13-2.34A11.19,11.19,0,0,0,404.3,276.64Z"/><path class="cls-2" d="M409.78,279.36l13,2.34a9.09,9.09,0,0,1,3.26,7.17l-13-2.34A9.15,9.15,0,0,0,409.78,279.36Z"/><polygon class="cls-2" points="413.05 286.53 426.06 288.87 426.02 296.19 413.01 293.85 413.05 286.53"/><path class="cls-2" d="M413,293.85l13,2.34a10.15,10.15,0,0,1-3.34,7.47,10.56,10.56,0,0,1-7.53,3.2l-13-2.34a10.55,10.55,0,0,0,7.53-3.2A10.13,10.13,0,0,0,413,293.85Z"/><path class="cls-2" d="M409.78,279.36a9.15,9.15,0,0,1,3.27,7.17l0,7.32a10.13,10.13,0,0,1-3.35,7.47,10.55,10.55,0,0,1-7.53,3.2h-60.7a26.08,26.08,0,0,1-9.75-2.13,25,25,0,0,1-8.54-5.49L316,289.27a27.63,27.63,0,0,1-5.52-8.53,24.52,24.52,0,0,1-2.2-9.76l.37-67.7a10.91,10.91,0,0,1,10.88-10.68h6.61a10,10,0,0,1,7.34,3.2,10.26,10.26,0,0,1,3.11,7.48l-.34,62.21a10.63,10.63,0,0,0,3.12,7.77,9.94,9.94,0,0,0,7.35,3.2h55.59A11,11,0,0,1,409.78,279.36Z"/></g><g class="cls-1"><path class="cls-2" d="M440.61,192.76l13,2.33a10.93,10.93,0,0,1,8.64,10.52l-13-2.33a10.9,10.9,0,0,0-8.64-10.52Z"/><polygon class="cls-2" points="449.25 203.28 462.27 205.61 461.93 268.13 448.91 265.8 449.25 203.28"/><path class="cls-2" d="M466.66,278.75l-13-2.34q-2-.36-3.26-3a17.13,17.13,0,0,1-1.47-7.61l13,2.33a17,17,0,0,0,1.46,7.62Q464.68,278.39,466.66,278.75Z"/><path class="cls-2" d="M454.91,276.52l13,2.34c1.33.24,2.52,1.24,3.54,3l-13-2.34C457.43,277.76,456.24,276.76,454.91,276.52Z"/><path class="cls-2" d="M458.45,279.51l13,2.34a14.71,14.71,0,0,1,1.77,7.63l-13-2.34A14.64,14.64,0,0,0,458.45,279.51Z"/><polygon class="cls-2" points="460.22 287.14 473.24 289.48 473.2 296.5 460.18 294.16 460.22 287.14"/><path class="cls-2" d="M460.84,306.61l-13-2.33a15.34,15.34,0,0,0,2.68.24,9.65,9.65,0,0,0,6.93-2.59q2.71-2.6,2.74-7.77l13,2.34q0,5.17-2.75,7.77a9.61,9.61,0,0,1-6.92,2.59A14.64,14.64,0,0,1,460.84,306.61Z"/><path class="cls-2" d="M458.45,279.51a14.64,14.64,0,0,1,1.77,7.63l0,7q0,5.18-2.74,7.77a9.65,9.65,0,0,1-6.93,2.59A17.66,17.66,0,0,1,443,302.7a26.21,26.21,0,0,1-7.47-5.49l-7.17-7.94a18.33,18.33,0,0,1-5.22-7.92,27.68,27.68,0,0,1-1.9-9.76l.37-68.31a10.65,10.65,0,0,1,3-7.48,9.61,9.61,0,0,1,7.23-3.2h6.92a10,10,0,0,1,7.34,3.2,10.26,10.26,0,0,1,3.11,7.48l-.34,62.52a17.13,17.13,0,0,0,1.47,7.61c1,2,2.29,3,3.89,3S457.27,277.48,458.45,279.51Z"/></g><g class="cls-1"><polygon class="cls-2" points="297.36 63.6 310.38 65.94 310.31 79.35 297.29 77.01 297.36 63.6"/><path class="cls-2" d="M290.5,182l-13-2.34a10,10,0,0,0,1.83.16l13,2.34A10.93,10.93,0,0,1,290.5,182Z"/><path class="cls-2" d="M307.94,52.92l13,2.34a9.93,9.93,0,0,0-7.53,3.2,10.64,10.64,0,0,0-3.05,7.48l-13-2.34a10.62,10.62,0,0,1,3.05-7.47A9.92,9.92,0,0,1,307.94,52.92Z"/><path class="cls-2" d="M318.75,90.16l-13-2.34a9.67,9.67,0,0,1-5.49-3,10.88,10.88,0,0,1-3-7.78l13,2.34a10.88,10.88,0,0,0,3,7.78A9.67,9.67,0,0,0,318.75,90.16Z"/><polygon class="cls-2" points="297.02 127.03 310.04 129.37 309.96 143.09 296.95 140.76 297.02 127.03"/><path class="cls-2" d="M307.6,116.05l13,2.34a9.93,9.93,0,0,0-7.54,3.2,11,11,0,0,0-3,7.78L297,127a11,11,0,0,1,3.05-7.77A9.92,9.92,0,0,1,307.6,116.05Z"/><path class="cls-2" d="M318.32,153.28l-13-2.33a9.86,9.86,0,0,1-5.39-2.87,10,10,0,0,1-3-7.32l13,2.33a10.05,10.05,0,0,0,3,7.33A9.78,9.78,0,0,0,318.32,153.28Z"/><polygon class="cls-2" points="337.08 52.92 350.1 55.26 320.96 55.26 307.94 52.92 337.08 52.92"/><path class="cls-2" d="M338.92,53.08l13,2.34a10.16,10.16,0,0,0-1.84-.16l-13-2.34A11.14,11.14,0,0,1,338.92,53.08Z"/><polygon class="cls-2" points="336.74 116.05 349.76 118.39 320.62 118.39 307.6 116.05 336.74 116.05"/><path class="cls-2" d="M338.59,116.22l13,2.33a11.26,11.26,0,0,0-1.85-.16l-13-2.34A10.27,10.27,0,0,1,338.59,116.22Z"/><polygon class="cls-2" points="375.49 63.6 388.51 65.94 388.44 79.35 375.42 77.01 375.49 63.6"/><path class="cls-2" d="M386.06,52.92l13,2.34a10.07,10.07,0,0,0-7.37,3.2,10.38,10.38,0,0,0-3.2,7.48l-13-2.34a10.36,10.36,0,0,1,3.2-7.47A10,10,0,0,1,386.06,52.92Z"/><path class="cls-2" d="M397.15,90.18l-13-2.34a10,10,0,0,1-5.6-3.2A10.81,10.81,0,0,1,375.42,77l13,2.34A10.72,10.72,0,0,0,391.55,87,10,10,0,0,0,397.15,90.18Z"/><polygon class="cls-2" points="375.15 127.03 388.17 129.37 388.09 143.09 375.08 140.76 375.15 127.03"/><path class="cls-2" d="M385.72,116.05l13,2.34a10.07,10.07,0,0,0-7.38,3.2,10.69,10.69,0,0,0-3.19,7.78l-13-2.34a10.7,10.7,0,0,1,3.2-7.77A10,10,0,0,1,385.72,116.05Z"/><path class="cls-2" d="M396.65,153.3l-13-2.34a10.28,10.28,0,0,1-5.44-2.88,9.71,9.71,0,0,1-3.11-7.32l13,2.33a9.77,9.77,0,0,0,3.12,7.33A10.28,10.28,0,0,0,396.65,153.3Z"/><polygon class="cls-2" points="415.82 52.92 428.83 55.26 399.08 55.26 386.06 52.92 415.82 52.92"/><path class="cls-2" d="M417.63,53.08l13,2.34a9.86,9.86,0,0,0-1.82-.16l-13-2.34A10.78,10.78,0,0,1,417.63,53.08Z"/><polygon class="cls-2" points="415.48 116.05 428.49 118.39 398.74 118.39 385.72 116.05 415.48 116.05"/><path class="cls-2" d="M417.3,116.21l13,2.34a9.86,9.86,0,0,0-1.82-.16l-13-2.34A10.93,10.93,0,0,1,417.3,116.21Z"/><polygon class="cls-2" points="420.84 179.79 433.86 182.13 292.33 182.13 279.31 179.79 420.84 179.79"/><path class="cls-2" d="M445.79,25l13,2.34a9.71,9.71,0,0,1,5.31,2.88,10,10,0,0,1,3,7.32l-13-2.33a10,10,0,0,0-3-7.32A9.67,9.67,0,0,0,445.79,25Z"/><path class="cls-2" d="M438.91,171.86l13,2.34a27.38,27.38,0,0,1-8.45,5.64,23.62,23.62,0,0,1-9.63,2.29l-13-2.34a23.66,23.66,0,0,0,9.63-2.29A27.45,27.45,0,0,0,438.91,171.86Z"/><polygon class="cls-2" points="446.16 164.54 459.18 166.88 451.93 174.2 438.91 171.86 446.16 164.54"/><polygon class="cls-2" points="454.07 35.24 467.09 37.58 466.49 148.58 453.47 146.24 454.07 35.24"/><path class="cls-2" d="M438.91,171.86a27.45,27.45,0,0,1-8.44,5.64,23.66,23.66,0,0,1-9.63,2.29H279.31a10,10,0,0,1-7.35-3.2,10.24,10.24,0,0,1-3.11-7.47l.72-133.88a9.87,9.87,0,0,1,3.2-7.32,10.29,10.29,0,0,1,7.38-3.05H443.91a9.66,9.66,0,0,1,7.19,3.05,10,10,0,0,1,3,7.32l-.6,111a25.23,25.23,0,0,1-2.15,9.61,35.29,35.29,0,0,1-5.16,8.69ZM426.2,77l.07-13.41a10.23,10.23,0,0,0-3.11-7.47,10,10,0,0,0-7.34-3.21H386.06a10,10,0,0,0-7.37,3.21,10.36,10.36,0,0,0-3.2,7.47L375.42,77a10.81,10.81,0,0,0,3.11,7.63A9.74,9.74,0,0,0,385.87,88h29.76A9.84,9.84,0,0,0,423,84.64,10.91,10.91,0,0,0,426.2,77m-.35,63.75.08-13.73a10.59,10.59,0,0,0-3.12-7.77,9.93,9.93,0,0,0-7.34-3.21H385.72a10,10,0,0,0-7.37,3.21,10.7,10.7,0,0,0-3.2,7.77l-.07,13.73a9.71,9.71,0,0,0,3.11,7.32,10.21,10.21,0,0,0,7.34,3h29.75a10.32,10.32,0,0,0,7.38-3,9.82,9.82,0,0,0,3.19-7.32M347.78,77l.07-13.41a10,10,0,0,0-3.27-7.47,10.46,10.46,0,0,0-7.5-3.21H307.94a9.92,9.92,0,0,0-7.53,3.21,10.62,10.62,0,0,0-3.05,7.47L297.29,77a10.88,10.88,0,0,0,3,7.78,9.82,9.82,0,0,0,7.5,3.21h29.14a10.35,10.35,0,0,0,7.54-3.36A10.7,10.7,0,0,0,347.78,77m-.35,63.75L347.5,127a10.34,10.34,0,0,0-3.26-7.77,10.46,10.46,0,0,0-7.5-3.21H307.6a9.92,9.92,0,0,0-7.53,3.21A11,11,0,0,0,297,127L297,140.76a10,10,0,0,0,3,7.32,10.09,10.09,0,0,0,7.5,3h29.14a10.89,10.89,0,0,0,7.54-3,9.69,9.69,0,0,0,3.34-7.32"/><path class="cls-2" d="M453.47,146.24l13,2.34a25.11,25.11,0,0,1-2.16,9.61,35.15,35.15,0,0,1-5.15,8.69l-13-2.34a35.29,35.29,0,0,0,5.16-8.69A25.23,25.23,0,0,0,453.47,146.24Z"/></g><text class="cls-3" transform="translate(8.47 266.74)">雅思</text><text class="cls-4" transform="translate(1.5 262.38)">雅思</text></g></g></svg>