<svg xmlns="http://www.w3.org/2000/svg" width="592.657" height="394.788" viewBox="0 0 592.657 394.788">
  <g id="Group_440" data-name="Group 440" transform="translate(-492.625 -232.936)">
    <g id="Group_439" data-name="Group 439" transform="translate(533.247 277.226)">
      <g id="Group_438" data-name="Group 438">
        <g id="Group_323" data-name="Group 323" style="isolation: isolate">
          <g id="Group_292" data-name="Group 292" transform="translate(11.962 34.633)">
            <path id="Path_267" data-name="Path 267" d="M552.112,300.415l-16.162-2.9a13.161,13.161,0,0,0,2.337.2l16.163,2.9A13.167,13.167,0,0,1,552.112,300.415Z" transform="translate(-535.95 -297.513)" fill="#c3c1e8"/>
          </g>
          <g id="Group_293" data-name="Group 293" transform="translate(22.014 60.396)">
            <path id="Path_268" data-name="Path 268" d="M544.046,318.263l16.163,2.9a13.567,13.567,0,0,1,10.727,13.061l-16.162-2.9a13.567,13.567,0,0,0-10.729-13.061Z" transform="translate(-544.046 -318.263)" fill="#c3c1e8"/>
          </g>
          <g id="Group_294" data-name="Group 294" transform="translate(32.492 73.457)">
            <path id="Path_269" data-name="Path 269" d="M552.736,328.783l16.162,2.9-.25,46.194-16.162-2.9Z" transform="translate(-552.486 -328.783)" fill="#c3c1e8"/>
          </g>
          <g id="Group_295" data-name="Group 295" transform="translate(14.299 34.835)">
            <path id="Path_270" data-name="Path 270" d="M575.138,297.676l16.162,2.9H553.995l-16.162-2.9Z" transform="translate(-537.833 -297.676)" fill="#c3c1e8"/>
          </g>
          <g id="Group_296" data-name="Group 296" transform="translate(51.604 34.835)">
            <path id="Path_271" data-name="Path 271" d="M570.14,297.873l16.162,2.9a12.742,12.742,0,0,0-2.261-.2l-16.162-2.9A12.743,12.743,0,0,1,570.14,297.873Z" transform="translate(-567.879 -297.676)" fill="#c3c1e8"/>
          </g>
          <g id="Group_297" data-name="Group 297" transform="translate(32.492 119.651)">
            <path id="Path_272" data-name="Path 272" d="M579.031,381.953l-16.163-2.9a11.9,11.9,0,0,1-6.7-3.782,13.068,13.068,0,0,1-3.68-9.281l16.162,2.9a13.079,13.079,0,0,0,3.68,9.281A11.907,11.907,0,0,0,579.031,381.953Z" transform="translate(-552.486 -365.989)" fill="#c3c1e8"/>
          </g>
          <g id="Group_298" data-name="Group 298" transform="translate(34.046 167.364)">
            <path id="Path_273" data-name="Path 273" d="M569.9,407.32l-16.163-2.9a23.531,23.531,0,0,0,4.162.38l16.162,2.9A23.508,23.508,0,0,1,569.9,407.32Z" transform="translate(-553.737 -404.418)" fill="#c3c1e8"/>
          </g>
          <g id="Group_299" data-name="Group 299" transform="translate(10.361 347.401)">
            <path id="Path_274" data-name="Path 274" d="M550.823,552.326l-16.162-2.9a12.74,12.74,0,0,0,2.245.195l16.162,2.9A12.621,12.621,0,0,1,550.823,552.326Z" transform="translate(-534.661 -549.424)" fill="#c3c1e8"/>
          </g>
          <g id="Group_300" data-name="Group 300" transform="translate(38.207 167.744)">
            <path id="Path_275" data-name="Path 275" d="M569.766,404.724l16.162,2.9H573.251l-16.162-2.9Z" transform="translate(-557.089 -404.724)" fill="#c3c1e8"/>
          </g>
          <g id="Group_301" data-name="Group 301" transform="translate(50.884 167.744)">
            <path id="Path_276" data-name="Path 276" d="M569.572,404.921l16.163,2.9a12.776,12.776,0,0,0-2.273-.2l-16.163-2.9A12.874,12.874,0,0,1,569.572,404.921Z" transform="translate(-567.299 -404.724)" fill="#c3c1e8"/>
          </g>
          <g id="Group_302" data-name="Group 302" transform="translate(12.606 347.596)">
            <path id="Path_277" data-name="Path 277" d="M546.912,549.581l16.162,2.9H552.631l-16.162-2.9Z" transform="translate(-536.469 -549.581)" fill="#c3c1e8"/>
          </g>
          <g id="Group_303" data-name="Group 303" transform="translate(46.151 184.986)">
            <path id="Path_278" data-name="Path 278" d="M563.487,418.611l16.163,2.9a10.705,10.705,0,0,1,6.49,3.767l-16.163-2.9A10.692,10.692,0,0,0,563.487,418.611Z" transform="translate(-563.487 -418.611)" fill="#c3c1e8"/>
          </g>
          <g id="Group_304" data-name="Group 304" transform="translate(52.641 188.753)">
            <path id="Path_279" data-name="Path 279" d="M568.714,421.645l16.163,2.9a11.312,11.312,0,0,1,2.558,9.281l-16.162-2.9A11.311,11.311,0,0,0,568.714,421.645Z" transform="translate(-568.714 -421.645)" fill="#c3c1e8"/>
          </g>
          <g id="Group_305" data-name="Group 305" transform="translate(38.053 198.034)">
            <path id="Path_280" data-name="Path 280" d="M574.111,429.12l16.162,2.9L573.127,568.338l-16.162-2.9Z" transform="translate(-556.965 -429.12)" fill="#c3c1e8"/>
          </g>
          <g id="Group_306" data-name="Group 306" transform="translate(23.049 334.35)">
            <path id="Path_281" data-name="Path 281" d="M559.885,538.912l16.162,2.9a15.51,15.51,0,0,1-5.09,9.27,14.155,14.155,0,0,1-9.914,3.977l-16.162-2.9a14.157,14.157,0,0,0,9.914-3.977A15.52,15.52,0,0,0,559.885,538.912Z" transform="translate(-544.88 -538.912)" fill="#c3c1e8"/>
          </g>
          <g id="Group_307" data-name="Group 307" transform="translate(0 184.776)">
            <path id="Path_282" data-name="Path 282" d="M578.957,422.419a11.311,11.311,0,0,1,2.559,9.281L564.369,568.016a15.52,15.52,0,0,1-5.091,9.27,14.157,14.157,0,0,1-9.914,3.977H538.922A11.716,11.716,0,0,1,530,577.285a13,13,0,0,1-3.68-9.27l.047-8.712a40.856,40.856,0,0,1,.975-9.471q.946-3.786,2.453-3.787c.749,0,1.68-1.317,2.817-3.976a28.771,28.771,0,0,0,2.1-9.27l13.61-101.1a15.465,15.465,0,0,1,5.09-9.281,13.343,13.343,0,0,1,9.155-3.977h7.461A11.076,11.076,0,0,1,578.957,422.419Z" transform="translate(-526.316 -418.442)" fill="#c3c1e8"/>
          </g>
          <g id="Group_308" data-name="Group 308" transform="translate(98.555 0.205)">
            <path id="Path_283" data-name="Path 283" d="M605.694,269.784l16.162,2.9a12.8,12.8,0,0,1,6.754,3.581,12.1,12.1,0,0,1,3.869,9.092l-16.162-2.9a12.1,12.1,0,0,0-3.869-9.092A12.8,12.8,0,0,0,605.694,269.784Z" transform="translate(-605.694 -269.784)" fill="#c3c1e8"/>
          </g>
          <g id="Group_309" data-name="Group 309" transform="translate(109.13 12.877)">
            <path id="Path_284" data-name="Path 284" d="M614.259,279.991l16.162,2.9-.047,8.7-16.162-2.9Z" transform="translate(-614.212 -279.991)" fill="#c3c1e8"/>
          </g>
          <g id="Group_310" data-name="Group 310" transform="translate(98.917 21.577)">
            <path id="Path_285" data-name="Path 285" d="M616.2,287l16.162,2.9a26.183,26.183,0,0,1-1.537,9.472q-1.524,3.786-3.751,3.786c-1.254,0-2.373,1.33-3.378,3.976a26.276,26.276,0,0,0-1.547,9.282l-16.162-2.9a26.268,26.268,0,0,1,1.547-9.282c1-2.647,2.124-3.976,3.378-3.976q2.227,0,3.751-3.787A26.2,26.2,0,0,0,616.2,287Z" transform="translate(-605.986 -286.998)" fill="#c3c1e8"/>
          </g>
          <g id="Group_311" data-name="Group 311" transform="translate(98.53 48.092)">
            <path id="Path_286" data-name="Path 286" d="M606.061,308.354l16.162,2.9-.387,71.559-16.162-2.9Z" transform="translate(-605.674 -308.354)" fill="#c3c1e8"/>
          </g>
          <g id="Group_312" data-name="Group 312" transform="translate(56.25 347.401)">
            <path id="Path_287" data-name="Path 287" d="M587.783,552.326l-16.162-2.9a12.738,12.738,0,0,0,2.244.195l16.163,2.9A12.619,12.619,0,0,1,587.783,552.326Z" transform="translate(-571.621 -549.424)" fill="#c3c1e8"/>
          </g>
          <g id="Group_313" data-name="Group 313" transform="translate(58.494 347.596)">
            <path id="Path_288" data-name="Path 288" d="M574.925,549.581l16.162,2.9h-1.5l-16.162-2.9Z" transform="translate(-573.428 -549.581)" fill="#c3c1e8"/>
          </g>
          <g id="Group_314" data-name="Group 314" transform="translate(98.529 119.651)">
            <path id="Path_289" data-name="Path 289" d="M626.308,382.12l-16.162-2.9c-1.127-.2-2.131-1.521-3.026-3.948a26.165,26.165,0,0,1-1.446-9.281l16.162,2.9a26.2,26.2,0,0,0,1.447,9.281C624.177,380.6,625.181,381.917,626.308,382.12Z" transform="translate(-605.674 -365.989)" fill="#c3c1e8"/>
          </g>
          <g id="Group_315" data-name="Group 315" transform="translate(103.758 132.948)">
            <path id="Path_290" data-name="Path 290" d="M609.885,376.7l16.162,2.9q1.933.348,3.264,3.747a26.032,26.032,0,0,1,1.434,9.461l-16.162-2.9a26.006,26.006,0,0,0-1.435-9.461Q611.818,377.046,609.885,376.7Z" transform="translate(-609.885 -376.698)" fill="#c3c1e8"/>
          </g>
          <g id="Group_316" data-name="Group 316" transform="translate(108.411 146.155)">
            <path id="Path_291" data-name="Path 291" d="M613.677,387.336l16.162,2.9-.045,8.332-16.162-2.9Z" transform="translate(-613.632 -387.336)" fill="#c3c1e8"/>
          </g>
          <g id="Group_317" data-name="Group 317" transform="translate(98.198 154.487)">
            <path id="Path_292" data-name="Path 292" d="M615.619,394.046l16.163,2.9a26.579,26.579,0,0,1-1.536,9.282c-1.017,2.646-2.267,3.976-3.753,3.976-1.254,0-2.373,1.317-3.377,3.977a26.209,26.209,0,0,0-1.547,9.27l-16.162-2.9a26.22,26.22,0,0,1,1.547-9.271c1-2.658,2.123-3.976,3.377-3.976q2.229,0,3.752-3.977A26.507,26.507,0,0,0,615.619,394.046Z" transform="translate(-605.407 -394.046)" fill="#c3c1e8"/>
          </g>
          <g id="Group_318" data-name="Group 318" transform="translate(59.991 337.376)">
            <path id="Path_293" data-name="Path 293" d="M596.7,541.349l16.162,2.9a37.191,37.191,0,0,1-10.483,7.192,27.286,27.286,0,0,1-11.581,3.027l-16.162-2.9a27.29,27.29,0,0,0,11.581-3.027A37.2,37.2,0,0,0,596.7,541.349Z" transform="translate(-574.634 -541.349)" fill="#c3c1e8"/>
          </g>
          <g id="Group_319" data-name="Group 319" transform="translate(82.055 329.424)">
            <path id="Path_294" data-name="Path 294" d="M599.161,534.945l16.162,2.9-6.756,7.952L592.4,542.9Z" transform="translate(-592.405 -534.945)" fill="#c3c1e8"/>
          </g>
          <g id="Group_320" data-name="Group 320" transform="translate(97.519 180.99)">
            <path id="Path_295" data-name="Path 295" d="M605.539,415.393l16.162,2.9-.679,125.336-16.162-2.9Z" transform="translate(-604.86 -415.393)" fill="#c3c1e8"/>
          </g>
          <g id="Group_321" data-name="Group 321" transform="translate(88.811 306.327)">
            <path id="Path_296" data-name="Path 296" d="M606.554,516.342l16.162,2.9a38.954,38.954,0,0,1-2.3,12.308,28.021,28.021,0,0,1-6.409,10.789l-16.162-2.9a28,28,0,0,0,6.408-10.789A38.927,38.927,0,0,0,606.554,516.342Z" transform="translate(-597.846 -516.342)" fill="#c3c1e8"/>
          </g>
          <g id="Group_322" data-name="Group 322" transform="translate(1.124)">
            <path id="Path_297" data-name="Path 297" d="M622.293,269.619a12.658,12.658,0,0,1,9.113,3.786,12.1,12.1,0,0,1,3.869,9.092l-.047,8.7a26.2,26.2,0,0,1-1.537,9.471q-1.523,3.786-3.751,3.787c-1.254,0-2.374,1.329-3.378,3.976a26.269,26.269,0,0,0-1.547,9.282l-.387,71.559a26.165,26.165,0,0,0,1.446,9.281c.976,2.647,2.081,3.976,3.335,3.976q2.229,0,3.71,3.787a26.006,26.006,0,0,1,1.435,9.461l-.046,8.331a26.507,26.507,0,0,1-1.536,9.281q-1.523,3.971-3.752,3.977c-1.254,0-2.373,1.317-3.377,3.976a26.22,26.22,0,0,0-1.547,9.271l-.679,125.337a38.929,38.929,0,0,1-2.3,12.308,28,28,0,0,1-6.408,10.789l-6.755,7.951a37.2,37.2,0,0,1-10.483,7.194,27.29,27.29,0,0,1-11.581,3.027h-1.5a11.715,11.715,0,0,1-8.924-3.977,13,13,0,0,1-3.68-9.27l.047-8.712a17.3,17.3,0,0,1,2.472-9.471Q576.953,582,580.3,582q3.73,0,6.369-3.786a16.325,16.325,0,0,0,2.66-9.46l.639-118.144a12.736,12.736,0,0,0-3.868-9.271,12.333,12.333,0,0,0-9.123-3.976H564.3a27.908,27.908,0,0,1-11.738-2.848,29.435,29.435,0,0,1-9.854-7l-7.421-7.572a43.514,43.514,0,0,1-5.715-11.359,36.544,36.544,0,0,1-2.355-12.118l.288-53.387a13.191,13.191,0,0,1,3.782-9.282,11.884,11.884,0,0,1,8.968-3.976h5.6a12.369,12.369,0,0,1,9.112,3.976,12.742,12.742,0,0,1,3.868,9.282l-.25,46.194a13.068,13.068,0,0,0,3.68,9.281,11.79,11.79,0,0,0,8.936,3.976h5.965a12.515,12.515,0,0,0,9.167-3.976,12.908,12.908,0,0,0,3.968-9.281l.387-71.559a12.748,12.748,0,0,0-3.868-9.282,12.375,12.375,0,0,0-9.123-3.976H540.4a12.014,12.014,0,0,1-8.926-3.787,12.841,12.841,0,0,1-3.679-9.471l.047-8.7a12.507,12.507,0,0,1,3.779-9.092,12.145,12.145,0,0,1,8.967-3.786Z" transform="translate(-527.221 -269.619)" fill="#c3c1e8"/>
          </g>
        </g>
        <g id="Group_372" data-name="Group 372" transform="translate(110.181)" style="isolation: isolate">
          <g id="Group_324" data-name="Group 324" transform="translate(4.457 116.976)">
            <path id="Path_298" data-name="Path 298" d="M619.28,363.89l16.162,2.9a1.685,1.685,0,0,0-.307-.027,1.9,1.9,0,0,1-.325-.029l-16.162-2.9a1.887,1.887,0,0,0,.325.029A1.7,1.7,0,0,1,619.28,363.89Z" transform="translate(-618.648 -363.834)" fill="#c3c1e8"/>
          </g>
          <g id="Group_325" data-name="Group 325" transform="translate(41.349 0.205)">
            <path id="Path_299" data-name="Path 299" d="M648.362,269.784l16.162,2.9a12.866,12.866,0,0,1,6.765,3.581,12.135,12.135,0,0,1,3.869,9.092l-16.163-2.9a12.134,12.134,0,0,0-3.868-9.092A12.866,12.866,0,0,0,648.362,269.784Z" transform="translate(-648.362 -269.784)" fill="#c3c1e8"/>
          </g>
          <g id="Group_326" data-name="Group 326" transform="translate(51.792 12.877)">
            <path id="Path_300" data-name="Path 300" d="M656.964,279.991l16.162,2.9-.191,35.215-16.162-2.9Z" transform="translate(-656.773 -279.991)" fill="#c3c1e8"/>
          </g>
          <g id="Group_327" data-name="Group 327" transform="translate(44.255 109.431)">
            <path id="Path_301" data-name="Path 301" d="M650.809,357.758l16.162,2.9-.107,19.691-16.162-2.9Z" transform="translate(-650.703 -357.758)" fill="#c3c1e8"/>
          </g>
          <g id="Group_328" data-name="Group 328" transform="translate(51.792 48.093)">
            <path id="Path_302" data-name="Path 302" d="M682.828,323.129l-16.162-2.9a12.653,12.653,0,0,1-6.21-2.983c-2.487-2.133-3.7-5.1-3.683-8.89l16.162,2.9c-.02,3.787,1.2,6.757,3.682,8.891A12.662,12.662,0,0,0,682.828,323.129Z" transform="translate(-656.773 -308.354)" fill="#c3c1e8"/>
          </g>
          <g id="Group_329" data-name="Group 329" transform="translate(44.361 96.554)">
            <path id="Path_303" data-name="Path 303" d="M663.922,347.386l16.162,2.9a12.938,12.938,0,0,0-13.132,12.878l-16.163-2.9a12.938,12.938,0,0,1,13.133-12.878Z" transform="translate(-650.788 -347.386)" fill="#c3c1e8"/>
          </g>
          <g id="Group_330" data-name="Group 330" transform="translate(44.255 129.122)">
            <path id="Path_304" data-name="Path 304" d="M677.239,389.54l-16.162-2.9a12.13,12.13,0,0,1-6.685-3.562,12.808,12.808,0,0,1-3.69-9.46l16.162,2.9a12.806,12.806,0,0,0,3.69,9.46A12.134,12.134,0,0,0,677.239,389.54Z" transform="translate(-650.703 -373.617)" fill="#c3c1e8"/>
          </g>
          <g id="Group_331" data-name="Group 331" transform="translate(43.814 190.841)">
            <path id="Path_305" data-name="Path 305" d="M650.454,423.327l16.162,2.9-.107,19.691-16.162-2.9Z" transform="translate(-650.348 -423.327)" fill="#c3c1e8"/>
          </g>
          <g id="Group_332" data-name="Group 332" transform="translate(19.168 347.399)">
            <path id="Path_306" data-name="Path 306" d="M646.66,552.324l-16.163-2.9a12.826,12.826,0,0,0,2.27.2l16.162,2.9A12.821,12.821,0,0,1,646.66,552.324Z" transform="translate(-630.497 -549.422)" fill="#c3c1e8"/>
          </g>
          <g id="Group_333" data-name="Group 333" transform="translate(57.494 96.554)">
            <path id="Path_307" data-name="Path 307" d="M671.434,347.386l16.162,2.9H677.528l-16.162-2.9Z" transform="translate(-661.366 -347.386)" fill="#c3c1e8"/>
          </g>
          <g id="Group_334" data-name="Group 334" transform="translate(75.653 46.377)">
            <path id="Path_308" data-name="Path 308" d="M692.153,309.874l-16.162-2.9a12.859,12.859,0,0,0,2.261.2l16.162,2.9A12.737,12.737,0,0,1,692.153,309.874Z" transform="translate(-675.991 -306.972)" fill="#c3c1e8"/>
          </g>
          <g id="Group_335" data-name="Group 335" transform="translate(67.563 96.554)">
            <path id="Path_309" data-name="Path 309" d="M671.871,347.6l16.162,2.9a13.458,13.458,0,0,0-2.4-.21l-16.163-2.9A13.46,13.46,0,0,1,671.871,347.6Z" transform="translate(-669.475 -347.386)" fill="#c3c1e8"/>
          </g>
          <g id="Group_336" data-name="Group 336" transform="translate(43.922 177.584)">
            <path id="Path_310" data-name="Path 310" d="M663.568,412.649l16.162,2.9a12.642,12.642,0,0,0-9.342,3.787,12.992,12.992,0,0,0-3.792,9.471l-16.162-2.9a12.989,12.989,0,0,1,3.792-9.472A12.639,12.639,0,0,1,663.568,412.649Z" transform="translate(-650.434 -412.649)" fill="#c3c1e8"/>
          </g>
          <g id="Group_337" data-name="Group 337" transform="translate(21.438 347.596)">
            <path id="Path_311" data-name="Path 311" d="M640.908,549.581l16.162,2.9h-8.583l-16.162-2.9Z" transform="translate(-632.325 -549.581)" fill="#c3c1e8"/>
          </g>
          <g id="Group_338" data-name="Group 338" transform="translate(43.815 210.532)">
            <path id="Path_312" data-name="Path 312" d="M677,455.5l-16.162-2.9a11.98,11.98,0,0,1-6.8-3.762,13.467,13.467,0,0,1-3.689-9.65l16.162,2.9a13.47,13.47,0,0,0,3.689,9.651A11.985,11.985,0,0,0,677,455.5Z" transform="translate(-650.348 -439.186)" fill="#c3c1e8"/>
          </g>
          <g id="Group_339" data-name="Group 339" transform="translate(43.374 272.631)">
            <path id="Path_313" data-name="Path 313" d="M650.1,489.2l16.162,2.9-.1,19.311-16.162-2.9Z" transform="translate(-649.993 -489.202)" fill="#c3c1e8"/>
          </g>
          <g id="Group_340" data-name="Group 340" transform="translate(57.055 177.584)">
            <path id="Path_314" data-name="Path 314" d="M671.081,412.649l16.162,2.9H677.174l-16.162-2.9Z" transform="translate(-661.012 -412.649)" fill="#c3c1e8"/>
          </g>
          <g id="Group_341" data-name="Group 341" transform="translate(67.124 177.584)">
            <path id="Path_315" data-name="Path 315" d="M671.758,412.876l16.163,2.9a14.814,14.814,0,0,0-2.637-.228l-16.162-2.9A14.918,14.918,0,0,1,671.758,412.876Z" transform="translate(-669.122 -412.649)" fill="#c3c1e8"/>
          </g>
          <g id="Group_342" data-name="Group 342" transform="translate(43.478 258.993)">
            <path id="Path_316" data-name="Path 316" d="M663.213,478.218l16.162,2.9a12.309,12.309,0,0,0-9.342,3.977,13.639,13.639,0,0,0-3.794,9.661l-16.162-2.9a13.633,13.633,0,0,1,3.793-9.661A12.313,12.313,0,0,1,663.213,478.218Z" transform="translate(-650.077 -478.218)" fill="#c3c1e8"/>
          </g>
          <g id="Group_343" data-name="Group 343" transform="translate(77.914 46.574)">
            <path id="Path_317" data-name="Path 317" d="M699.821,307.13l16.162,2.9H693.974l-16.162-2.9Z" transform="translate(-677.812 -307.13)" fill="#c3c1e8"/>
          </g>
          <g id="Group_344" data-name="Group 344" transform="translate(43.374 291.941)">
            <path id="Path_318" data-name="Path 318" d="M676.529,520.678l-16.162-2.9a12.136,12.136,0,0,1-6.685-3.561,12.809,12.809,0,0,1-3.69-9.461l16.162,2.9a12.809,12.809,0,0,0,3.69,9.461A12.135,12.135,0,0,0,676.529,520.678Z" transform="translate(-649.993 -504.755)" fill="#c3c1e8"/>
          </g>
          <g id="Group_345" data-name="Group 345" transform="translate(56.615 258.993)">
            <path id="Path_319" data-name="Path 319" d="M670.726,478.218l16.162,2.9H676.819l-16.162-2.9Z" transform="translate(-660.657 -478.218)" fill="#c3c1e8"/>
          </g>
          <g id="Group_346" data-name="Group 346" transform="translate(66.684 258.993)">
            <path id="Path_320" data-name="Path 320" d="M671.053,478.418l16.162,2.9a12.83,12.83,0,0,0-2.286-.2l-16.162-2.9A12.954,12.954,0,0,1,671.053,478.418Z" transform="translate(-668.767 -478.218)" fill="#c3c1e8"/>
          </g>
          <g id="Group_347" data-name="Group 347" transform="translate(30.021 340.403)">
            <path id="Path_321" data-name="Path 321" d="M665.391,543.787l16.163,2.9a32.965,32.965,0,0,0-9.152,1.14c-2.612.76-3.926,1.507-3.93,2.267-.006,1.006-1.254,1.9-3.745,2.658a32.881,32.881,0,0,1-9.327,1.129l-16.163-2.9a32.874,32.874,0,0,0,9.327-1.129c2.492-.76,3.74-1.654,3.745-2.658.005-.76,1.318-1.509,3.931-2.267A32.956,32.956,0,0,1,665.391,543.787Z" transform="translate(-639.238 -543.787)" fill="#c3c1e8"/>
          </g>
          <g id="Group_348" data-name="Group 348" transform="translate(99.923 36.733)">
            <path id="Path_322" data-name="Path 322" d="M717.976,299.2l16.162,2.9a33.809,33.809,0,0,1-10.669,7,30.132,30.132,0,0,1-11.768,2.838l-16.162-2.9a30.129,30.129,0,0,0,11.768-2.837A33.81,33.81,0,0,0,717.976,299.2Z" transform="translate(-695.539 -299.205)" fill="#c3c1e8"/>
          </g>
          <g id="Group_349" data-name="Group 349" transform="translate(122.359 28.022)">
            <path id="Path_323" data-name="Path 323" d="M722.614,292.189l16.162,2.9-9,8.712-16.162-2.9Z" transform="translate(-713.61 -292.189)" fill="#c3c1e8"/>
          </g>
          <g id="Group_350" data-name="Group 350" transform="translate(114.772 109.431)">
            <path id="Path_324" data-name="Path 324" d="M707.605,357.758l16.162,2.9-.107,19.691-16.162-2.9Z" transform="translate(-707.499 -357.758)" fill="#c3c1e8"/>
          </g>
          <g id="Group_351" data-name="Group 351" transform="translate(130.98 0.273)">
            <path id="Path_325" data-name="Path 325" d="M720.553,269.839l16.163,2.9a14.019,14.019,0,0,1,5.736,2.374q3.717,2.663,3.7,6.444a20.773,20.773,0,0,1-2.658,9.27,54.528,54.528,0,0,1-6.392,9.662l-16.162-2.9a54.458,54.458,0,0,0,6.39-9.662,20.793,20.793,0,0,0,2.659-9.27q.02-3.786-3.7-6.444A14.01,14.01,0,0,0,720.553,269.839Z" transform="translate(-720.553 -269.839)" fill="#c3c1e8"/>
          </g>
          <g id="Group_352" data-name="Group 352" transform="translate(64.925)">
            <path id="Path_326" data-name="Path 326" d="M680.339,316.192a12.375,12.375,0,0,1-9.123-3.976,13.169,13.169,0,0,1-3.865-9.65l.045-8.332a12.886,12.886,0,0,1,3.968-9.282,12.52,12.52,0,0,1,9.167-3.976h15.3a21.617,21.617,0,0,0,8.956-1.7q3.74-1.71,3.752-3.977c.009-1.764,1.26-3.16,3.753-4.165a25.1,25.1,0,0,1,9.339-1.518h8.584a14.987,14.987,0,0,1,8.932,2.647q3.715,2.663,3.7,6.444a20.793,20.793,0,0,1-2.659,9.27,54.458,54.458,0,0,1-6.39,9.662l-9,8.711a33.81,33.81,0,0,1-10.669,7,30.129,30.129,0,0,1-11.768,2.837Z" transform="translate(-667.351 -269.619)" fill="#c3c1e8"/>
          </g>
          <g id="Group_353" data-name="Group 353" transform="translate(114.772 129.122)">
            <path id="Path_327" data-name="Path 327" d="M733.939,389.563l-16.162-2.9a12.078,12.078,0,0,1-6.6-3.584,12.843,12.843,0,0,1-3.679-9.46l16.162,2.9a12.841,12.841,0,0,0,3.679,9.46A12.07,12.07,0,0,0,733.939,389.563Z" transform="translate(-707.499 -373.617)" fill="#c3c1e8"/>
          </g>
          <g id="Group_354" data-name="Group 354" transform="translate(114.331 190.841)">
            <path id="Path_328" data-name="Path 328" d="M707.25,423.327l16.162,2.9-.107,19.691-16.162-2.9Z" transform="translate(-707.144 -423.327)" fill="#c3c1e8"/>
          </g>
          <g id="Group_355" data-name="Group 355" transform="translate(129.427 60.371)">
            <path id="Path_329" data-name="Path 329" d="M719.3,318.243l16.163,2.9a11.539,11.539,0,0,1,6.953,4.373,15.657,15.657,0,0,1,3.676,10.231l-16.163-2.9a15.648,15.648,0,0,0-3.675-10.231A11.545,11.545,0,0,0,719.3,318.243Z" transform="translate(-719.302 -318.243)" fill="#c3c1e8"/>
          </g>
          <g id="Group_356" data-name="Group 356" transform="translate(140.011 74.976)">
            <path id="Path_330" data-name="Path 330" d="M727.872,330.006l16.162,2.9-.045,8.332-16.162-2.9Z" transform="translate(-727.827 -330.006)" fill="#c3c1e8"/>
          </g>
          <g id="Group_357" data-name="Group 357" transform="translate(114.878 83.308)">
            <path id="Path_331" data-name="Path 331" d="M732.717,336.717l16.162,2.9a13.539,13.539,0,0,1-3.593,9.27,11.352,11.352,0,0,1-8.782,3.977,12.184,12.184,0,0,0-8.978,3.787,12.566,12.566,0,0,0-3.779,9.091l-16.163-2.9a12.571,12.571,0,0,1,3.781-9.092,12.187,12.187,0,0,1,8.978-3.786,11.348,11.348,0,0,0,8.781-3.977A13.543,13.543,0,0,0,732.717,336.717Z" transform="translate(-707.584 -336.717)" fill="#c3c1e8"/>
          </g>
          <g id="Group_358" data-name="Group 358" transform="translate(114.332 210.532)">
            <path id="Path_332" data-name="Path 332" d="M733.687,455.52l-16.162-2.9a11.921,11.921,0,0,1-6.7-3.783,13.5,13.5,0,0,1-3.678-9.65l16.162,2.9a13.508,13.508,0,0,0,3.677,9.651A11.926,11.926,0,0,0,733.687,455.52Z" transform="translate(-707.144 -439.186)" fill="#c3c1e8"/>
          </g>
          <g id="Group_359" data-name="Group 359" transform="translate(113.891 272.631)">
            <path id="Path_333" data-name="Path 333" d="M706.893,489.2l16.162,2.9-.1,19.311-16.162-2.9Z" transform="translate(-706.789 -489.202)" fill="#c3c1e8"/>
          </g>
          <g id="Group_360" data-name="Group 360" transform="translate(129.675 142.566)">
            <path id="Path_334" data-name="Path 334" d="M719.5,384.445l16.162,2.9a11.444,11.444,0,0,1,6.453,3.589,13.25,13.25,0,0,1,3.493,9.471l-16.162-2.9a13.248,13.248,0,0,0-3.493-9.471A11.437,11.437,0,0,0,719.5,384.445Z" transform="translate(-719.502 -384.445)" fill="#c3c1e8"/>
          </g>
          <g id="Group_361" data-name="Group 361" transform="translate(139.573 155.626)">
            <path id="Path_335" data-name="Path 335" d="M727.521,394.964l16.162,2.9-.047,8.712-16.162-2.9Z" transform="translate(-727.474 -394.964)" fill="#c3c1e8"/>
          </g>
          <g id="Group_362" data-name="Group 362" transform="translate(114.437 164.337)">
            <path id="Path_336" data-name="Path 336" d="M732.365,401.98l16.162,2.9a13.361,13.361,0,0,1-3.594,9.461,11.588,11.588,0,0,1-8.781,3.786,12.229,12.229,0,0,0-8.978,3.787,13.018,13.018,0,0,0-3.782,9.471l-16.163-2.9a13.031,13.031,0,0,1,3.782-9.472,12.233,12.233,0,0,1,8.979-3.786,11.583,11.583,0,0,0,8.779-3.787A13.352,13.352,0,0,0,732.365,401.98Z" transform="translate(-707.229 -401.98)" fill="#c3c1e8"/>
          </g>
          <g id="Group_363" data-name="Group 363" transform="translate(113.891 291.941)">
            <path id="Path_337" data-name="Path 337" d="M733.229,520.7l-16.162-2.9a12.08,12.08,0,0,1-6.6-3.583,12.844,12.844,0,0,1-3.679-9.461l16.162,2.9a12.844,12.844,0,0,0,3.679,9.461A12.069,12.069,0,0,0,733.229,520.7Z" transform="translate(-706.789 -504.755)" fill="#c3c1e8"/>
          </g>
          <g id="Group_364" data-name="Group 364" transform="translate(129.245 224.357)">
            <path id="Path_338" data-name="Path 338" d="M719.155,450.321l16.163,2.9a11.373,11.373,0,0,1,6.439,3.588,13.239,13.239,0,0,1,3.493,9.471l-16.162-2.9a13.248,13.248,0,0,0-3.493-9.472A11.381,11.381,0,0,0,719.155,450.321Z" transform="translate(-719.155 -450.321)" fill="#c3c1e8"/>
          </g>
          <g id="Group_365" data-name="Group 365" transform="translate(139.132 237.415)">
            <path id="Path_339" data-name="Path 339" d="M727.164,460.839l16.162,2.9-.045,8.332-16.162-2.9Z" transform="translate(-727.119 -460.839)" fill="#c3c1e8"/>
          </g>
          <g id="Group_366" data-name="Group 366" transform="translate(113.995 245.747)">
            <path id="Path_340" data-name="Path 340" d="M732.01,467.549l16.162,2.9a13.361,13.361,0,0,1-3.594,9.461A11.589,11.589,0,0,1,735.8,483.7a11.928,11.928,0,0,0-8.979,3.977,13.676,13.676,0,0,0-3.783,9.661l-16.162-2.9a13.667,13.667,0,0,1,3.783-9.661,11.924,11.924,0,0,1,8.979-3.977,11.586,11.586,0,0,0,8.779-3.786A13.357,13.357,0,0,0,732.01,467.549Z" transform="translate(-706.873 -467.549)" fill="#c3c1e8"/>
          </g>
          <g id="Group_367" data-name="Group 367" transform="translate(56.174 340.403)">
            <path id="Path_341" data-name="Path 341" d="M730.071,543.787l16.162,2.9H676.464l-16.162-2.9Z" transform="translate(-660.302 -543.787)" fill="#c3c1e8"/>
          </g>
          <g id="Group_368" data-name="Group 368" transform="translate(128.704 305.378)">
            <path id="Path_342" data-name="Path 342" d="M718.72,515.577l16.162,2.9a11.246,11.246,0,0,1,6.541,3.787,13.416,13.416,0,0,1,3.494,9.281l-16.162-2.9a13.415,13.415,0,0,0-3.494-9.281A11.246,11.246,0,0,0,718.72,515.577Z" transform="translate(-718.72 -515.577)" fill="#c3c1e8"/>
          </g>
          <g id="Group_369" data-name="Group 369" transform="translate(138.689 318.445)">
            <path id="Path_343" data-name="Path 343" d="M726.811,526.1l16.162,2.9-.049,9.091-16.162-2.9Z" transform="translate(-726.762 -526.102)" fill="#c3c1e8"/>
          </g>
          <g id="Group_370" data-name="Group 370" transform="translate(125.942 327.537)">
            <path id="Path_344" data-name="Path 344" d="M729.242,533.425l16.162,2.9a12.544,12.544,0,0,1-3.779,9.08,12.181,12.181,0,0,1-8.967,3.786l-16.163-2.9a12.177,12.177,0,0,0,8.967-3.786A12.54,12.54,0,0,0,729.242,533.425Z" transform="translate(-716.495 -533.425)" fill="#c3c1e8"/>
          </g>
          <g id="Group_371" data-name="Group 371">
            <path id="Path_345" data-name="Path 345" d="M742.518,329.818a11.175,11.175,0,0,1,8.922,4.545,15.649,15.649,0,0,1,3.675,10.231l-.045,8.332a13.543,13.543,0,0,1-3.594,9.27,11.348,11.348,0,0,1-8.781,3.977,12.187,12.187,0,0,0-8.978,3.786,12.571,12.571,0,0,0-3.781,9.092l-.105,19.69a12.843,12.843,0,0,0,3.679,9.46,12.055,12.055,0,0,0,8.937,3.787,11.5,11.5,0,0,1,8.74,3.787,13.248,13.248,0,0,1,3.493,9.471l-.047,8.711a13.352,13.352,0,0,1-3.6,9.46,11.583,11.583,0,0,1-8.779,3.787,12.233,12.233,0,0,0-8.979,3.786,13.031,13.031,0,0,0-3.782,9.472l-.106,19.69a13.5,13.5,0,0,0,3.678,9.65A11.794,11.794,0,0,0,742,493.777a11.458,11.458,0,0,1,8.738,3.786,13.248,13.248,0,0,1,3.493,9.472l-.045,8.331a13.357,13.357,0,0,1-3.6,9.461,11.586,11.586,0,0,1-8.779,3.786,11.924,11.924,0,0,0-8.979,3.977,13.667,13.667,0,0,0-3.783,9.661l-.1,19.31a12.844,12.844,0,0,0,3.679,9.461,12.054,12.054,0,0,0,8.937,3.786,11.219,11.219,0,0,1,8.738,3.977,13.415,13.415,0,0,1,3.494,9.281l-.05,9.092a12.54,12.54,0,0,1-3.781,9.08A12.177,12.177,0,0,1,741,610.021H671.232a32.955,32.955,0,0,0-9.15,1.14c-2.612.759-3.926,1.507-3.931,2.267,0,1-1.253,1.9-3.745,2.658a32.874,32.874,0,0,1-9.327,1.129H636.5a12.311,12.311,0,0,1-9.112-3.977,12.692,12.692,0,0,1-3.868-9.27l1.1-203.72a27.578,27.578,0,0,0-1.444-9.65c-.987-2.658-2.092-3.976-3.335-3.976s-2.359-1.263-3.336-3.787a25.785,25.785,0,0,1-1.445-9.471l.047-8.712a17.5,17.5,0,0,1,2.471-9.27q2.449-3.971,5.811-3.976,3.73,0,6.172-3.787a16.546,16.546,0,0,0,2.481-9.091l.3-56.034a12.514,12.514,0,0,1,3.781-9.092,12.161,12.161,0,0,1,8.967-3.786h8.958a12.7,12.7,0,0,1,9.124,3.786,12.134,12.134,0,0,1,3.868,9.092l-.19,35.215c-.021,3.786,1.2,6.757,3.683,8.89a13.079,13.079,0,0,0,8.93,3.217ZM695.44,480.151l.107-19.69a12.582,12.582,0,0,0-3.866-9.472,13.163,13.163,0,0,0-9.5-3.786H672.114a12.639,12.639,0,0,0-9.342,3.786,12.99,12.99,0,0,0-3.792,9.472l-.107,19.69a13.467,13.467,0,0,0,3.689,9.65,12.176,12.176,0,0,0,9.3,3.977h10.069a13.9,13.9,0,0,0,13.51-13.626M695,561.56l.106-19.31a13.715,13.715,0,0,0-13.363-13.638H671.673a12.313,12.313,0,0,0-9.343,3.977,13.633,13.633,0,0,0-3.793,9.661l-.1,19.31a12.809,12.809,0,0,0,3.69,9.461,12.459,12.459,0,0,0,9.3,3.786h10.069a13.261,13.261,0,0,0,9.539-3.786A12.674,12.674,0,0,0,695,561.56m.882-162.819.107-19.69a11.9,11.9,0,0,0-4.055-9.092,13.317,13.317,0,0,0-9.312-3.786H672.553a12.938,12.938,0,0,0-13.133,12.878l-.106,19.69A12.808,12.808,0,0,0,663,408.2a12.461,12.461,0,0,0,9.3,3.787h10.069a13.262,13.262,0,0,0,9.539-3.787,12.674,12.674,0,0,0,3.968-9.46" transform="translate(-615.059 -269.619)" fill="#c3c1e8"/>
          </g>
        </g>
        <g id="Group_379" data-name="Group 379" transform="translate(285.401 208.253)" style="isolation: isolate">
          <g id="Group_373" data-name="Group 373" transform="translate(38.005 0.196)">
            <path id="Path_346" data-name="Path 346" d="M786.795,437.509l16.162,2.9a12.62,12.62,0,0,1,6.861,3.781,12.783,12.783,0,0,1,3.868,9.281l-16.162-2.9a12.779,12.779,0,0,0-3.867-9.281A12.624,12.624,0,0,0,786.795,437.509Z" transform="translate(-786.795 -437.509)" fill="#c3c1e8"/>
          </g>
          <g id="Group_374" data-name="Group 374" transform="translate(8.565 129.882)">
            <path id="Path_347" data-name="Path 347" d="M779.246,553.727l-16.163-2.9a14.458,14.458,0,0,0,2.556.216q9.69,0,17.955-9.081l16.162,2.9q-8.252,9.081-17.953,9.081A14.432,14.432,0,0,1,779.246,553.727Z" transform="translate(-763.083 -541.961)" fill="#c3c1e8"/>
          </g>
          <g id="Group_375" data-name="Group 375" transform="translate(29.075 120.031)">
            <path id="Path_348" data-name="Path 348" d="M789.362,534.027l16.162,2.9-9.759,9.851-16.162-2.9Z" transform="translate(-779.603 -534.027)" fill="#c3c1e8"/>
          </g>
          <g id="Group_376" data-name="Group 376" transform="translate(48.274 13.258)">
            <path id="Path_349" data-name="Path 349" d="M795.525,448.029l16.162,2.9-.459,84.816-16.162-2.9Z" transform="translate(-795.066 -448.029)" fill="#c3c1e8"/>
          </g>
          <g id="Group_377" data-name="Group 377">
            <path id="Path_350" data-name="Path 350" d="M791.939,437.351a12.37,12.37,0,0,1,9.112,3.977,12.779,12.779,0,0,1,3.867,9.281l-.459,84.816a32.512,32.512,0,0,1-2.673,12.118,24.72,24.72,0,0,1-6.767,9.84l-9.759,9.851q-8.252,9.081-17.955,9.081a10.59,10.59,0,0,1-8.192-3.217q-2.969-3.216-2.929-9.65l.047-8.712a21.418,21.418,0,0,1,1.911-9.471c1.256-2.524,2.761-3.787,4.5-3.787,1.991,0,3.671-1.261,5.061-3.786a19.769,19.769,0,0,0,2.1-9.461l.42-77.623A13.226,13.226,0,0,1,774,441.328a11.926,11.926,0,0,1,8.979-3.977Z" transform="translate(-756.185 -437.351)" fill="#c3c1e8"/>
          </g>
          <g id="Group_378" data-name="Group 378" transform="translate(38.835 98.074)">
            <path id="Path_351" data-name="Path 351" d="M796.9,516.342l16.162,2.9a32.484,32.484,0,0,1-2.673,12.118,24.7,24.7,0,0,1-6.767,9.84l-16.162-2.9a24.72,24.72,0,0,0,6.767-9.84A32.512,32.512,0,0,0,796.9,516.342Z" transform="translate(-787.463 -516.342)" fill="#c3c1e8"/>
          </g>
        </g>
        <g id="Group_399" data-name="Group 399" transform="translate(345.245 208.253)" style="isolation: isolate">
          <g id="Group_380" data-name="Group 380" transform="translate(24.425 0.196)">
            <path id="Path_352" data-name="Path 352" d="M824.056,437.509l16.162,2.9a12.623,12.623,0,0,1,6.862,3.781,12.782,12.782,0,0,1,3.866,9.281l-16.162-2.9a12.779,12.779,0,0,0-3.868-9.281A12.62,12.62,0,0,0,824.056,437.509Z" transform="translate(-824.056 -437.509)" fill="#c3c1e8"/>
          </g>
          <g id="Group_381" data-name="Group 381" transform="translate(34.735 13.258)">
            <path id="Path_353" data-name="Path 353" d="M832.778,448.029l16.162,2.9-.418,77.243-16.162-2.9Z" transform="translate(-832.36 -448.029)" fill="#c3c1e8"/>
          </g>
          <g id="Group_382" data-name="Group 382" transform="translate(34.735 90.502)">
            <path id="Path_354" data-name="Path 354" d="M859.238,526.572l-16.162-2.9a12.549,12.549,0,0,1-6.851-3.778,13.174,13.174,0,0,1-3.865-9.65l16.162,2.9a13.175,13.175,0,0,0,3.866,9.65A12.547,12.547,0,0,0,859.238,526.572Z" transform="translate(-832.36 -510.243)" fill="#c3c1e8"/>
          </g>
          <g id="Group_383" data-name="Group 383" transform="translate(36.509 138.53)">
            <path id="Path_355" data-name="Path 355" d="M849.951,551.828l-16.162-2.9a26.527,26.527,0,0,0,4.676.433l16.163,2.9A26.414,26.414,0,0,1,849.951,551.828Z" transform="translate(-833.789 -548.926)" fill="#c3c1e8"/>
          </g>
          <g id="Group_384" data-name="Group 384" transform="translate(77.273 0.215)">
            <path id="Path_356" data-name="Path 356" d="M866.621,437.524l16.162,2.9a12.013,12.013,0,0,1,6.8,3.761,13.1,13.1,0,0,1,3.68,9.281l-16.163-2.9a13.083,13.083,0,0,0-3.68-9.281A12.022,12.022,0,0,0,866.621,437.524Z" transform="translate(-866.621 -437.524)" fill="#c3c1e8"/>
          </g>
          <g id="Group_385" data-name="Group 385" transform="translate(87.605 13.258)">
            <path id="Path_357" data-name="Path 357" d="M875.092,448.029l16.162,2.9-.15,27.642-16.162-2.9Z" transform="translate(-874.943 -448.029)" fill="#c3c1e8"/>
          </g>
          <g id="Group_386" data-name="Group 386" transform="translate(87.605 40.9)">
            <path id="Path_358" data-name="Path 358" d="M901.581,486.225l-16.162-2.9a11.967,11.967,0,0,1-6.8-3.761,13.041,13.041,0,0,1-3.68-9.27l16.162,2.9a13.053,13.053,0,0,0,3.68,9.271A11.973,11.973,0,0,0,901.581,486.225Z" transform="translate(-874.943 -470.293)" fill="#c3c1e8"/>
          </g>
          <g id="Group_387" data-name="Group 387" transform="translate(88.73 88.56)">
            <path id="Path_359" data-name="Path 359" d="M892.011,511.581l-16.162-2.9a25.939,25.939,0,0,0,4.59.422L896.6,512A25.949,25.949,0,0,1,892.011,511.581Z" transform="translate(-875.849 -508.679)" fill="#c3c1e8"/>
          </g>
          <g id="Group_388" data-name="Group 388" transform="translate(93.321 88.982)">
            <path id="Path_360" data-name="Path 360" d="M903.052,509.019l16.162,2.9H895.708l-16.162-2.9Z" transform="translate(-879.546 -509.019)" fill="#c3c1e8"/>
          </g>
          <g id="Group_389" data-name="Group 389" transform="translate(41.186 138.963)">
            <path id="Path_361" data-name="Path 361" d="M912.925,549.275l16.162,2.9h-75.37l-16.162-2.9Z" transform="translate(-837.556 -549.275)" fill="#c3c1e8"/>
          </g>
          <g id="Group_390" data-name="Group 390" transform="translate(119.29 54.345)">
            <path id="Path_362" data-name="Path 362" d="M900.463,481.122l16.162,2.9a13.4,13.4,0,0,1,7.024,3.777,12.478,12.478,0,0,1,4.055,9.282l-16.163-2.9a12.47,12.47,0,0,0-4.054-9.282A13.4,13.4,0,0,0,900.463,481.122Z" transform="translate(-900.463 -481.122)" fill="#c3c1e8"/>
          </g>
          <g id="Group_391" data-name="Group 391" transform="translate(130.323 67.404)">
            <path id="Path_363" data-name="Path 363" d="M909.394,491.64l16.162,2.9-.045,8.332-16.162-2.9Z" transform="translate(-909.349 -491.64)" fill="#c3c1e8"/>
          </g>
          <g id="Group_392" data-name="Group 392" transform="translate(116.826 75.735)">
            <path id="Path_364" data-name="Path 364" d="M911.975,498.35l16.162,2.9a12.675,12.675,0,0,1-3.968,9.461,13.236,13.236,0,0,1-9.529,3.786l-16.162-2.9a13.233,13.233,0,0,0,9.528-3.786A12.671,12.671,0,0,0,911.975,498.35Z" transform="translate(-898.478 -498.35)" fill="#c3c1e8"/>
          </g>
          <g id="Group_393" data-name="Group 393" transform="translate(52.87)">
            <path id="Path_365" data-name="Path 365" d="M911.111,491.5a13,13,0,0,1,9.3,3.976,12.47,12.47,0,0,1,4.054,9.282l-.045,8.331a12.671,12.671,0,0,1-3.969,9.461,13.233,13.233,0,0,1-9.528,3.786H887.417a34.315,34.315,0,0,1-22.332-9.46l-9.282-9.092a35.081,35.081,0,0,1-6.28-10.788,32.673,32.673,0,0,1-2.555-11.929l.186-34.455a13.231,13.231,0,0,1,3.782-9.281,11.924,11.924,0,0,1,8.979-3.977h8.957a12.19,12.19,0,0,1,9.3,3.977,13.083,13.083,0,0,1,3.68,9.281l-.149,27.643a13.041,13.041,0,0,0,3.68,9.27,12.176,12.176,0,0,0,9.311,3.977Z" transform="translate(-846.967 -437.351)" fill="#c3c1e8"/>
          </g>
          <g id="Group_394" data-name="Group 394" transform="translate(119.249 104.345)">
            <path id="Path_366" data-name="Path 366" d="M900.43,521.393l16.163,2.9a13.867,13.867,0,0,1,6.8,3.377l-16.162-2.9A13.882,13.882,0,0,0,900.43,521.393Z" transform="translate(-900.43 -521.393)" fill="#c3c1e8"/>
          </g>
          <g id="Group_395" data-name="Group 395" transform="translate(126.046 107.724)">
            <path id="Path_367" data-name="Path 367" d="M905.9,524.114l16.162,2.9a11.3,11.3,0,0,1,4.056,8.9l-16.162-2.9A11.294,11.294,0,0,0,905.9,524.114Z" transform="translate(-905.904 -524.114)" fill="#c3c1e8"/>
          </g>
          <g id="Group_396" data-name="Group 396" transform="translate(130.053 116.625)">
            <path id="Path_368" data-name="Path 368" d="M909.18,531.284l16.162,2.9-.049,9.091-16.162-2.9Z" transform="translate(-909.131 -531.284)" fill="#c3c1e8"/>
          </g>
          <g id="Group_397" data-name="Group 397" transform="translate(116.555 125.717)">
            <path id="Path_369" data-name="Path 369" d="M911.757,538.606l16.162,2.9a12.567,12.567,0,0,1-4.154,9.27,13.1,13.1,0,0,1-9.343,3.977l-16.162-2.9a13.1,13.1,0,0,0,9.343-3.977A12.571,12.571,0,0,0,911.757,538.606Z" transform="translate(-898.26 -538.606)" fill="#c3c1e8"/>
          </g>
          <g id="Group_398" data-name="Group 398">
            <path id="Path_370" data-name="Path 370" d="M930.43,545.075a11.294,11.294,0,0,1,4.056,8.9l-.05,9.092a12.571,12.571,0,0,1-4.154,9.27,13.1,13.1,0,0,1-9.343,3.977h-75.37a32.279,32.279,0,0,1-12.1-2.647,30.979,30.979,0,0,1-10.6-6.814l-8.9-9.471a34.342,34.342,0,0,1-6.854-10.6,30.518,30.518,0,0,1-2.73-12.118l.456-84.056a13.569,13.569,0,0,1,13.508-13.258h8.209a12.37,12.37,0,0,1,9.112,3.977,12.779,12.779,0,0,1,3.868,9.281l-.418,77.244a13.174,13.174,0,0,0,3.865,9.65,12.337,12.337,0,0,0,9.123,3.976h69.021A13.677,13.677,0,0,1,930.43,545.075Z" transform="translate(-804.384 -437.351)" fill="#c3c1e8"/>
          </g>
        </g>
        <g id="Group_408" data-name="Group 408" transform="translate(485.515 208.253)" style="isolation: isolate">
          <g id="Group_400" data-name="Group 400" transform="translate(24.055 0.196)">
            <path id="Path_371" data-name="Path 371" d="M936.735,437.509l16.162,2.9a13.538,13.538,0,0,1,10.729,13.06l-16.162-2.9a13.541,13.541,0,0,0-10.729-13.061Z" transform="translate(-936.735 -437.509)" fill="#c3c1e8"/>
          </g>
          <g id="Group_401" data-name="Group 401" transform="translate(34.362 13.258)">
            <path id="Path_372" data-name="Path 372" d="M945.457,448.029l16.162,2.9-.42,77.623-16.162-2.9Z" transform="translate(-945.037 -448.029)" fill="#c3c1e8"/>
          </g>
          <g id="Group_402" data-name="Group 402" transform="translate(34.362 90.88)">
            <path id="Path_373" data-name="Path 373" d="M967.069,526.628l-16.162-2.9q-2.453-.439-4.05-3.717a21.219,21.219,0,0,1-1.82-9.461l16.162,2.9a21.214,21.214,0,0,0,1.82,9.46Q964.617,526.188,967.069,526.628Z" transform="translate(-945.037 -510.548)" fill="#c3c1e8"/>
          </g>
          <g id="Group_403" data-name="Group 403" transform="translate(41.811 104.197)">
            <path id="Path_374" data-name="Path 374" d="M951.036,521.274l16.162,2.9c1.655.3,3.129,1.536,4.4,3.716l-16.162-2.9C954.165,522.81,952.691,521.571,951.036,521.274Z" transform="translate(-951.036 -521.274)" fill="#c3c1e8"/>
          </g>
          <g id="Group_404" data-name="Group 404" transform="translate(46.211 107.914)">
            <path id="Path_375" data-name="Path 375" d="M954.58,524.267l16.162,2.9a18.266,18.266,0,0,1,2.194,9.471l-16.162-2.9A18.264,18.264,0,0,0,954.58,524.267Z" transform="translate(-954.58 -524.267)" fill="#c3c1e8"/>
          </g>
          <g id="Group_405" data-name="Group 405" transform="translate(48.357 117.384)">
            <path id="Path_376" data-name="Path 376" d="M956.356,531.9l16.162,2.9-.047,8.712-16.162-2.9Z" transform="translate(-956.308 -531.895)" fill="#c3c1e8"/>
          </g>
          <g id="Group_406" data-name="Group 406" transform="translate(33.014 126.096)">
            <path id="Path_377" data-name="Path 377" d="M960.113,554.377l-16.162-2.9a18.849,18.849,0,0,0,3.334.3,11.986,11.986,0,0,0,8.6-3.217q3.367-3.216,3.409-9.65l16.162,2.9q-.035,6.433-3.409,9.65a11.982,11.982,0,0,1-8.6,3.217A18.859,18.859,0,0,1,960.113,554.377Z" transform="translate(-943.951 -538.912)" fill="#c3c1e8"/>
          </g>
          <g id="Group_407" data-name="Group 407">
            <path id="Path_378" data-name="Path 378" d="M963.572,545.265a18.264,18.264,0,0,1,2.194,9.471l-.047,8.712q-.035,6.433-3.409,9.65a11.986,11.986,0,0,1-8.6,3.217,21.859,21.859,0,0,1-9.32-2.267,32.474,32.474,0,0,1-9.283-6.814l-8.9-9.851a22.755,22.755,0,0,1-6.474-9.84,34.4,34.4,0,0,1-2.366-12.118l.459-84.816a13.236,13.236,0,0,1,3.781-9.281,11.928,11.928,0,0,1,8.979-3.977h8.584a12.412,12.412,0,0,1,9.123,3.977,12.768,12.768,0,0,1,3.856,9.281l-.421,77.623a21.219,21.219,0,0,0,1.82,9.461q1.844,3.786,4.832,3.786C960.356,541.478,962.1,542.74,963.572,545.265Z" transform="translate(-917.361 -437.351)" fill="#c3c1e8"/>
          </g>
        </g>
        <g id="Group_437" data-name="Group 437" transform="translate(296.31)" style="isolation: isolate">
          <g id="Group_409" data-name="Group 409" transform="translate(35.318 48.092)">
            <path id="Path_379" data-name="Path 379" d="M793.507,308.354l16.162,2.9-.09,16.653-16.162-2.9Z" transform="translate(-793.416 -308.354)" fill="#c3c1e8"/>
          </g>
          <g id="Group_410" data-name="Group 410" transform="translate(10.723 192.151)">
            <path id="Path_380" data-name="Path 380" d="M789.769,427.284l-16.162-2.9a12.822,12.822,0,0,0,2.268.2l16.163,2.9A12.832,12.832,0,0,1,789.769,427.284Z" transform="translate(-773.607 -424.382)" fill="#c3c1e8"/>
          </g>
          <g id="Group_411" data-name="Group 411" transform="translate(35.408 34.835)">
            <path id="Path_381" data-name="Path 381" d="M806.623,297.676l16.162,2.9a12.352,12.352,0,0,0-9.353,3.977,13.192,13.192,0,0,0-3.781,9.281l-16.162-2.9a13.192,13.192,0,0,1,3.781-9.282A12.355,12.355,0,0,1,806.623,297.676Z" transform="translate(-793.489 -297.676)" fill="#c3c1e8"/>
          </g>
          <g id="Group_412" data-name="Group 412" transform="translate(35.317 64.745)">
            <path id="Path_382" data-name="Path 382" d="M820.065,338.089l-16.162-2.9a12.02,12.02,0,0,1-6.809-3.761,13.531,13.531,0,0,1-3.679-9.661l16.163,2.9a13.529,13.529,0,0,0,3.678,9.662A12.026,12.026,0,0,0,820.065,338.089Z" transform="translate(-793.416 -321.766)" fill="#c3c1e8"/>
          </g>
          <g id="Group_413" data-name="Group 413" transform="translate(34.889 126.844)">
            <path id="Path_383" data-name="Path 383" d="M793.164,371.782l16.162,2.9-.092,17.043-16.162-2.9Z" transform="translate(-793.071 -371.782)" fill="#c3c1e8"/>
          </g>
          <g id="Group_414" data-name="Group 414" transform="translate(34.982 113.218)">
            <path id="Path_384" data-name="Path 384" d="M806.281,360.807l16.163,2.9a12.312,12.312,0,0,0-9.354,3.976,13.649,13.649,0,0,0-3.782,9.65l-16.162-2.9a13.641,13.641,0,0,1,3.782-9.65A12.312,12.312,0,0,1,806.281,360.807Z" transform="translate(-793.146 -360.807)" fill="#c3c1e8"/>
          </g>
          <g id="Group_415" data-name="Group 415" transform="translate(34.888 143.887)">
            <path id="Path_385" data-name="Path 385" d="M819.61,401.064l-16.162-2.9a12.2,12.2,0,0,1-6.7-3.561,12.422,12.422,0,0,1-3.681-9.092l16.163,2.9a12.416,12.416,0,0,0,3.68,9.092A12.188,12.188,0,0,0,819.61,401.064Z" transform="translate(-793.071 -385.509)" fill="#c3c1e8"/>
          </g>
          <g id="Group_416" data-name="Group 416" transform="translate(48.541 34.835)">
            <path id="Path_386" data-name="Path 386" d="M840.25,297.676l16.162,2.9H820.229l-16.162-2.9Z" transform="translate(-804.067 -297.676)" fill="#c3c1e8"/>
          </g>
          <g id="Group_417" data-name="Group 417" transform="translate(84.725 34.835)">
            <path id="Path_387" data-name="Path 387" d="M835.49,297.876l16.162,2.9a12.894,12.894,0,0,0-2.28-.2l-16.162-2.9A12.9,12.9,0,0,1,835.49,297.876Z" transform="translate(-833.21 -297.676)" fill="#c3c1e8"/>
          </g>
          <g id="Group_418" data-name="Group 418" transform="translate(48.117 113.218)">
            <path id="Path_388" data-name="Path 388" d="M839.909,360.807l16.162,2.9H819.887l-16.162-2.9Z" transform="translate(-803.725 -360.807)" fill="#c3c1e8"/>
          </g>
          <g id="Group_419" data-name="Group 419" transform="translate(84.3 113.218)">
            <path id="Path_389" data-name="Path 389" d="M835.16,361.008l16.162,2.9a12.91,12.91,0,0,0-2.292-.2l-16.162-2.9A12.92,12.92,0,0,1,835.16,361.008Z" transform="translate(-832.868 -360.807)" fill="#c3c1e8"/>
          </g>
          <g id="Group_420" data-name="Group 420" transform="translate(132.322 48.092)">
            <path id="Path_390" data-name="Path 390" d="M871.636,308.354l16.162,2.9-.09,16.653-16.162-2.9Z" transform="translate(-871.546 -308.354)" fill="#c3c1e8"/>
          </g>
          <g id="Group_421" data-name="Group 421" transform="translate(132.413 34.835)">
            <path id="Path_391" data-name="Path 391" d="M884.741,297.676l16.163,2.9a12.508,12.508,0,0,0-9.155,3.977,12.841,12.841,0,0,0-3.968,9.281l-16.162-2.9a12.839,12.839,0,0,1,3.967-9.282A12.516,12.516,0,0,1,884.741,297.676Z" transform="translate(-871.619 -297.676)" fill="#c3c1e8"/>
          </g>
          <g id="Group_422" data-name="Group 422" transform="translate(132.322 64.745)">
            <path id="Path_392" data-name="Path 392" d="M898.522,338.116l-16.163-2.9a12.4,12.4,0,0,1-6.947-3.978,13.35,13.35,0,0,1-3.866-9.471l16.162,2.9a13.355,13.355,0,0,0,3.866,9.472A12.4,12.4,0,0,0,898.522,338.116Z" transform="translate(-871.546 -321.766)" fill="#c3c1e8"/>
          </g>
          <g id="Group_423" data-name="Group 423" transform="translate(131.894 126.844)">
            <path id="Path_393" data-name="Path 393" d="M871.293,371.782l16.162,2.9-.092,17.043-16.162-2.9Z" transform="translate(-871.201 -371.782)" fill="#c3c1e8"/>
          </g>
          <g id="Group_424" data-name="Group 424" transform="translate(131.986 113.218)">
            <path id="Path_394" data-name="Path 394" d="M884.4,360.807l16.163,2.9a12.467,12.467,0,0,0-9.156,3.976,13.267,13.267,0,0,0-3.969,9.65l-16.163-2.9a13.274,13.274,0,0,1,3.969-9.65A12.469,12.469,0,0,1,884.4,360.807Z" transform="translate(-871.275 -360.807)" fill="#c3c1e8"/>
          </g>
          <g id="Group_425" data-name="Group 425" transform="translate(131.893 143.887)">
            <path id="Path_395" data-name="Path 395" d="M897.986,401.083l-16.162-2.9a12.811,12.811,0,0,1-6.755-3.581,12.1,12.1,0,0,1-3.868-9.092l16.162,2.9a12.1,12.1,0,0,0,3.869,9.092A12.808,12.808,0,0,0,897.986,401.083Z" transform="translate(-871.201 -385.509)" fill="#c3c1e8"/>
          </g>
          <g id="Group_426" data-name="Group 426" transform="translate(145.535 34.835)">
            <path id="Path_396" data-name="Path 396" d="M919.13,297.676l16.162,2.9H898.35l-16.162-2.9Z" transform="translate(-882.188 -297.676)" fill="#c3c1e8"/>
          </g>
          <g id="Group_427" data-name="Group 427" transform="translate(182.477 34.835)">
            <path id="Path_397" data-name="Path 397" d="M914.193,297.872l16.162,2.9a12.75,12.75,0,0,0-2.251-.2l-16.162-2.9A12.756,12.756,0,0,1,914.193,297.872Z" transform="translate(-911.942 -297.676)" fill="#c3c1e8"/>
          </g>
          <g id="Group_428" data-name="Group 428" transform="translate(145.111 113.218)">
            <path id="Path_398" data-name="Path 398" d="M918.788,360.807l16.162,2.9H898.008l-16.162-2.9Z" transform="translate(-881.846 -360.807)" fill="#c3c1e8"/>
          </g>
          <g id="Group_429" data-name="Group 429" transform="translate(182.052 113.218)">
            <path id="Path_399" data-name="Path 399" d="M913.863,361l16.162,2.9a12.763,12.763,0,0,0-2.262-.2l-16.163-2.9A12.781,12.781,0,0,1,913.863,361Z" transform="translate(-911.6 -360.807)" fill="#c3c1e8"/>
          </g>
          <g id="Group_430" data-name="Group 430" transform="translate(12.991 192.349)">
            <path id="Path_400" data-name="Path 400" d="M951.154,424.541l16.162,2.9H791.6l-16.162-2.9Z" transform="translate(-775.434 -424.541)" fill="#c3c1e8"/>
          </g>
          <g id="Group_431" data-name="Group 431" transform="translate(219.69 0.202)">
            <path id="Path_401" data-name="Path 401" d="M941.914,269.782l16.163,2.9a12.061,12.061,0,0,1,6.6,3.583,12.423,12.423,0,0,1,3.683,9.092l-16.163-2.9a12.417,12.417,0,0,0-3.681-9.092A12.065,12.065,0,0,0,941.914,269.782Z" transform="translate(-941.914 -269.782)" fill="#c3c1e8"/>
          </g>
          <g id="Group_432" data-name="Group 432" transform="translate(188.711 182.509)">
            <path id="Path_402" data-name="Path 402" d="M939.4,416.616l16.162,2.9a34.084,34.084,0,0,1-10.48,7,29.359,29.359,0,0,1-11.957,2.836l-16.162-2.9a29.348,29.348,0,0,0,11.955-2.836A34.073,34.073,0,0,0,939.4,416.616Z" transform="translate(-916.963 -416.616)" fill="#c3c1e8"/>
          </g>
          <g id="Group_433" data-name="Group 433" transform="translate(211.148 173.418)">
            <path id="Path_403" data-name="Path 403" d="M944.041,409.294l16.162,2.9-9.007,9.091-16.162-2.9Z" transform="translate(-935.034 -409.294)" fill="#c3c1e8"/>
          </g>
          <g id="Group_434" data-name="Group 434" transform="translate(229.224 12.877)">
            <path id="Path_404" data-name="Path 404" d="M950.34,279.991l16.162,2.9-.746,137.823-16.162-2.9Z" transform="translate(-949.594 -279.991)" fill="#c3c1e8"/>
          </g>
          <g id="Group_435" data-name="Group 435">
            <path id="Path_405" data-name="Path 405" d="M976.119,452.128a34.073,34.073,0,0,1-10.481,7,29.348,29.348,0,0,1-11.955,2.836H777.962a12.353,12.353,0,0,1-9.123-3.976,12.722,12.722,0,0,1-3.868-9.27l.9-166.226a12.276,12.276,0,0,1,3.967-9.092A12.824,12.824,0,0,1,779,269.619H982.323a12.053,12.053,0,0,1,8.937,3.786,12.417,12.417,0,0,1,3.681,9.092l-.746,137.823a31.067,31.067,0,0,1-2.672,11.928,43.9,43.9,0,0,1-6.4,10.789ZM960.338,334.364l.089-16.652a12.7,12.7,0,0,0-3.868-9.282,12.374,12.374,0,0,0-9.112-3.976H910.506a12.516,12.516,0,0,0-9.155,3.976,12.839,12.839,0,0,0-3.967,9.282l-.091,16.652a13.35,13.35,0,0,0,3.866,9.471A12.08,12.08,0,0,0,910.27,348h36.942a12.221,12.221,0,0,0,9.157-4.167,13.493,13.493,0,0,0,3.969-9.471m-.428,79.142L960,396.463a13.128,13.128,0,0,0-3.865-9.65,12.333,12.333,0,0,0-9.113-3.977H910.081a12.47,12.47,0,0,0-9.155,3.977,13.275,13.275,0,0,0-3.969,9.65l-.092,17.043a12.1,12.1,0,0,0,3.868,9.092,12.659,12.659,0,0,0,9.115,3.786h36.941a12.8,12.8,0,0,0,9.155-3.786,12.235,12.235,0,0,0,3.967-9.092m-96.94-79.142.091-16.652a12.48,12.48,0,0,0-4.054-9.282,13.028,13.028,0,0,0-9.311-3.976H813.512a12.355,12.355,0,0,0-9.353,3.976,13.192,13.192,0,0,0-3.781,9.282l-.091,16.652a13.531,13.531,0,0,0,3.679,9.661A12.213,12.213,0,0,0,813.276,348H849.46a12.845,12.845,0,0,0,9.354-4.167,13.243,13.243,0,0,0,4.156-9.471m-.428,79.142.092-17.043a13.713,13.713,0,0,0-13.362-13.626H813.087a12.312,12.312,0,0,0-9.353,3.977,13.641,13.641,0,0,0-3.782,9.65l-.093,17.043a12.751,12.751,0,0,0,12.992,12.878h36.183a13.482,13.482,0,0,0,9.353-3.786,12.025,12.025,0,0,0,4.153-9.092" transform="translate(-764.971 -269.619)" fill="#c3c1e8"/>
          </g>
          <g id="Group_436" data-name="Group 436" transform="translate(220.155 150.701)">
            <path id="Path_406" data-name="Path 406" d="M951.358,391l16.163,2.9a31.069,31.069,0,0,1-2.673,11.928,43.846,43.846,0,0,1-6.4,10.789l-16.162-2.9a43.9,43.9,0,0,0,6.4-10.789A31.067,31.067,0,0,0,951.358,391Z" transform="translate(-942.289 -390.997)" fill="#c3c1e8"/>
          </g>
        </g>
      </g>
    </g>
    <text id="" transform="translate(506.283 576.545)" fill="#00497b" font-size="378" font-family="ZCOOLQingKeHuangYou-Regular, ZCOOL QingKe HuangYou"><tspan x="0" y="0"></tspan></text>
    <text id="-2" data-name="" transform="translate(497.625 571.936)" stroke="#222b20" stroke-miterlimit="10" stroke-width="5" font-size="379" font-family="ZCOOLQingKeHuangYou-Regular, ZCOOL QingKe HuangYou" fill="none"><tspan x="0" y="0"></tspan></text>
  </g>
</svg>
