<svg xmlns="http://www.w3.org/2000/svg" viewBox="0 0 153.09 121.78"><defs><style>.cls-1{fill:#231f20;}</style></defs><g id="Layer_2" data-name="Layer 2"><g id="Layer_1-2" data-name="Layer 1"><path class="cls-1" d="M45.24,22.39V80.71c0,34.62-25.54,41.07-35.42,41.07-2.63,0-8.37-1.63-9.82-2.16,0,0,29.94-1.53,29.94-38.91V22.39C29.94,5,16.38.8,16.38.8c6.58,0,12.37.13,19,.13S52.22.8,58.8.8C58.8.8,45.24,5,45.24,22.39Z"/><path class="cls-1" d="M153.09,120.58c-8.83-.15-17.94-.3-27.07-.3-8.83,0-10.2.15-19.18.3,0,0,11.57-5.18,11.57-9.44s-25.27-74-29.55-90.48L96.84,0c12.48,38.36,22.76,65.17,35.86,97.75C138.18,111.29,153.09,120.58,153.09,120.58Z"/><polygon class="cls-1" points="72 63.14 70.99 65.26 107.89 65.26 107.89 63.14 72 63.14"/></g></g></svg>