<svg id="Layer_1" data-name="Layer 1" xmlns="http://www.w3.org/2000/svg" viewBox="0 0 455.31 428"><defs><style>.cls-1{fill:#fff;}.cls-2{fill:none;stroke:#f1f2f2;stroke-miterlimit:10;stroke-width:4px;}</style></defs><title>white</title><g id="JA"><g id="Group_1" data-name="Group 1"><path id="Path_4" data-name="Path 4" class="cls-1" d="M323.36,338.93l.05-58.57,114.06-1v59.54Z" transform="translate(-210.53 -85.58)"/></g><path id="Path_6" data-name="Path 6" class="cls-2" d="M661.73,369.63" transform="translate(-210.53 -85.58)"/><path id="Path_7" data-name="Path 7" class="cls-2" d="M325.86,311.87" transform="translate(-210.53 -85.58)"/><g id="Group_3" data-name="Group 3"><path id="Path_8" data-name="Path 8" class="cls-1" d="M454.22,311.87A43,43,0,0,1,444,313.36c-6.73.67-16.79,1.43-29.64,2.05-12.82.79-28.57,1.91-46.77,3.3a433.63,433.63,0,0,0-61,8.27,187.43,187.43,0,0,0-33.5,10.7,115.73,115.73,0,0,0-31.51,19.44,68.08,68.08,0,0,0-12.17,14.22,57.45,57.45,0,0,0-7.23,17.41,112.84,112.84,0,0,0-.88,40.06,153.27,153.27,0,0,0,11.82,41.1,88,88,0,0,0,10.74,18.95,33,33,0,0,0,17.32,11.49,47.19,47.19,0,0,0,22.32.14,56,56,0,0,0,20.91-9.34,47.19,47.19,0,0,0,14-17.47,80.82,80.82,0,0,0,6.47-22.43c2.45-17.2,3.88-34.7,5.14-51.71.46-8.55,1-17,1.32-25.44s.65-16.75.73-25c.63-33.09.13-65-.36-95.17s-.95-58.75-.71-85.22c0-6.62.16-13.11.29-19.46s.29-12.58.53-18.65.41-12,.77-17.77c.08-1.34.16-2.68.22-4l.12-1.34.11-1.4c0-.38.23-1.35-.21-.67a13.94,13.94,0,0,1-1.94,1.74l-.77.54-.4.28-.88.54c-1.15.73-2.32,1.45-3.52,2.06a63.67,63.67,0,0,1-14.62,5.61,66.22,66.22,0,0,1-28.23.92,60.45,60.45,0,0,1-22.11-8.74,46.84,46.84,0,0,1-4.23-3.06c-.65-.54-1.28-1.09-1.91-1.62-.47-.43-.77-.73-1.12-1.11a24.66,24.66,0,0,1-3.56-4.64c-.45-.68-.76-1.43-1.17-2.16l-.14-.27c-.07-.16,0,.09,0,.12V97c0,1.27-.07,2.46-.1,3.57-.08,2.68-.16,5-.21,6.8a22.11,22.11,0,0,1-.65,7,22.31,22.31,0,0,1-1-6.93c-.09-1.28-.21-2.67-.32-4.27-.12-1.79-.23-3.77-.39-5.9s-.26-4.68-.4-7.29c0-.67-.07-1.35-.11-2.05l0-1.06c0-.12,0-.19,0-.38l-.13-.86.2.1c.18.12.09-.1.52.28l.64.68c1.3,2.22,2.51,4.15,4,6.53a28.74,28.74,0,0,0,2.18,3.06,15.9,15.9,0,0,0,2.2,2.63c.73.7,1.56,1.53,2.27,2.16.6.47,1.2.94,1.82,1.41a46.79,46.79,0,0,0,4,2.68,57.1,57.1,0,0,0,20.71,7.36,61.23,61.23,0,0,0,25.76-1.55,57.46,57.46,0,0,0,13-5.35,34.49,34.49,0,0,0,3.06-1.89l.77-.48,1.14-.91,2.34-1.84c.81-.7,1.72-1.78,2.59-2.68s1.74-1.81,2.68-2.92c1.8-2,3.6-4.13,5.42-6.22a23,23,0,0,1,.06,5.74c-.09,2.29-.19,4.62-.27,7q-.22,5.79-.47,11.74c-.26,5.73-.31,11.65-.42,17.68s-.23,12.23-.2,18.55-.08,12.79,0,19.39c.18,26.37,1,54.84,1.75,85.06s1.5,62.16,1,95.46c-.25,34.59.28,69.33-4.18,103.64a103.55,103.55,0,0,1-7.69,26.72,56.16,56.16,0,0,1-16.85,20.89,66.21,66.21,0,0,1-24.78,11c-9,2.09-20.81-.11-29.74-2.43a41.31,41.31,0,0,1-12.51-5.74c-3.65-2.5-6.46-4.58-9.21-8.06-4.83-6.45-10.48-12.24-13.51-19.71A160,160,0,0,1,211,432.11c-.92-7.19-.09-16.66,0-23.9a93.51,93.51,0,0,1,2.67-21.27,65.06,65.06,0,0,1,8.41-19.6,75.11,75.11,0,0,1,13.79-15.76,122.5,122.5,0,0,1,34-20.37,192.89,192.89,0,0,1,35.06-10.55,415.79,415.79,0,0,1,62.23-7.1c18.35-.9,34.08-1.49,47-1.74l29.68-.32A44.15,44.15,0,0,1,454.22,311.87Z" transform="translate(-210.53 -85.58)"/></g><path id="Path_9" data-name="Path 9" class="cls-1" d="M290.17,339.11C263.8,363.8,251,397.47,255.66,429.77a69.44,69.44,0,0,0,15.63,36.15C281.37,477.37,298.87,486.31,314,488c-6.85,5.77-12.62,11.8-20.7,15.67-8.73,4-23.85,2.31-33.23.19-13.88-3.75-21.29-15.61-26.66-26.53C223.94,458,216.17,437.86,215,417.1a78.25,78.25,0,0,1,20.34-58.9,83.79,83.79,0,0,1,67.49-24.64" transform="translate(-210.53 -85.58)"/><path id="Path_10" data-name="Path 10" class="cls-1" d="M245,89.93c11.1,11.87,28.54,24.37,44.76,25.29a70,70,0,0,0,46.95-12.9c-5.82,11.19,4.9,24.9-2.4,35.6a31.37,31.37,0,0,1-17.1,10.22c-17.75,5.25-47.89,5.4-62.49-5.8C242.21,132.76,245.6,102.26,245,89.93Z" transform="translate(-210.53 -85.58)"/><path id="Path_11" data-name="Path 11" class="cls-1" d="M260.73,304.83c-20.85,18.89-35.21,42-46.22,77.71-2.55,8.23,24.62,11.57,22.46,20.11-3.82,15.07,4.3,14.37.47,29.46,24.66-49.68,21.48-69.34,58.15-87.87,11.4-5.76,52.77-6.63,71.93-5.47-.24-.18-.26-30.87.34-33.94a59.38,59.38,0,0,0,.67-16.3c-.77-2.92-.89-8.54-2.52-8.57-30.06-.57-47.1-.92-61.76,2.1C285.09,285.53,268.22,298.27,260.73,304.83Z" transform="translate(-210.53 -85.58)"/><rect id="Rectangle_1" data-name="Rectangle 1" class="cls-1" x="217.51" y="72.45" width="78.57" height="355.55"/><rect id="Rectangle_2" data-name="Rectangle 2" class="cls-1" x="254.08" y="192.69" width="166.3" height="61.13"/><rect id="Rectangle_3" data-name="Rectangle 3" class="cls-1" x="290.75" y="0.69" width="91.81" height="72.75"/><rect id="Rectangle_4" data-name="Rectangle 4" class="cls-1" x="376.73" y="72.45" width="78.57" height="355.55"/></g></svg>